<svg id="Add_to_Basket" data-name="Add to Basket" xmlns="http://www.w3.org/2000/svg" width="65" height="65" viewBox="0 0 65 65">
  <rect id="Rectangle_14" data-name="Rectangle 14" width="65" height="6.724" rx="3.362" transform="translate(0 24.655)" fill="#e4989d"/>
  <path id="Path_273" data-name="Path 273" d="M106.276,248l-.3,2.241L102.183,278.7a3.362,3.362,0,0,1-3.333,2.918H55.426a3.362,3.362,0,0,1-3.333-2.918L48.3,250.241,48,248Z" transform="translate(-44.638 -216.621)" fill="#e4989d"/>
  <path id="Path_274" data-name="Path 274" d="M106.276,248l-.3,2.241H48.3L48,248Z" transform="translate(-44.638 -216.621)" fill="#dd636e"/>
  <path id="Path_275" data-name="Path 275" d="M71.69,48.655H63.845L56.266,29A3.621,3.621,0,0,1,59.529,24a3.527,3.527,0,0,1,3.263,2.255Z" transform="translate(-51.517 -24)" fill="#756e78"/>
  <path id="Path_276" data-name="Path 276" d="M344,48.655h7.845L359.423,29A3.621,3.621,0,0,0,356.161,24a3.527,3.527,0,0,0-3.263,2.255Z" transform="translate(-299.172 -24)" fill="#756e78"/>
  <g id="Group_39" data-name="Group 39" transform="translate(12.328 35.862)">
    <rect id="Rectangle_15" data-name="Rectangle 15" width="4.483" height="24.655" rx="2.241" transform="translate(17.931)" fill="#e28086"/>
    <rect id="Rectangle_16" data-name="Rectangle 16" width="4.483" height="24.655" rx="2.241" transform="translate(8.966)" fill="#e28086"/>
    <rect id="Rectangle_17" data-name="Rectangle 17" width="4.483" height="24.655" rx="2.241" transform="translate(35.862)" fill="#e28086"/>
    <rect id="Rectangle_18" data-name="Rectangle 18" width="4.483" height="24.655" rx="2.241" transform="translate(26.897)" fill="#e28086"/>
    <rect id="Rectangle_19" data-name="Rectangle 19" width="4.483" height="24.655" rx="2.241" transform="translate(0)" fill="#e28086"/>
  </g>
  <path id="Path_277" data-name="Path 277" d="M192.81,34.086V24H181.6V34.086H176l11.207,10.086,11.207-10.086Z" transform="translate(-154.707 -24)" fill="#ffc250"/>
</svg>
