<svg id="All_Products" data-name="All Products" xmlns="http://www.w3.org/2000/svg" width="75.066" height="87.91" viewBox="0 0 75.066 87.91">
  <g id="lettuce" transform="translate(-0.001 0)">
    <path id="Path_454" data-name="Path 454" d="M138.017,4.583c-12.045-10.97-18.506,1.2-18.506,1.2l-.433,28.914H138.74Zm0,0" transform="translate(-102.401)" fill="#b4e6a0"/>
    <path id="Path_455" data-name="Path 455" d="M13.207,117.276C13.207,102.169,2.5,98.983.485,94.218c-1.952-4.626,2.7-5.792,1.518-9.252-1.88-5.494.084-11.072,6.662-10.4h5.7v42.708Zm0,0" transform="translate(0 -64.078)" fill="#78c3a5"/>
    <path id="Path_456" data-name="Path 456" d="M77.785,205.9A23.143,23.143,0,0,1,80.1,216.523h1.156v-26.6H80.1a2.313,2.313,0,0,0-2.313,2.314Zm0,0" transform="translate(-66.891 -163.324)" fill="#64af96"/>
    <path id="Path_457" data-name="Path 457" d="M268.883,117.276c0-15.108,10.712-18.294,12.722-23.059,1.952-4.626-2.7-5.792-1.518-9.252,1.88-5.494-.084-11.072-6.663-10.4h-5.7v42.708Zm0,0" transform="translate(-230.232 -64.078)" fill="#b4e6a0"/>
    <path id="Path_458" data-name="Path 458" d="M107.024,277.639A12.722,12.722,0,0,1,94.3,264.917V239.472h25.445v25.445a12.723,12.723,0,0,1-12.722,12.722Zm0,0" transform="translate(-81.094 -205.935)" fill="#fff6d8"/>
    <path id="Path_459" data-name="Path 459" d="M151.947,301.422a8.1,8.1,0,0,1-8.1-8.1V272.508h16.192v20.818a8.1,8.1,0,0,1-8.1,8.1Zm0,0" transform="translate(-123.705 -234.345)" fill="#ffedb1"/>
    <path id="Path_460" data-name="Path 460" d="M96.614,264.917V239.472H94.3v25.445a12.722,12.722,0,0,0,12.722,12.722c.391,0,.775-.024,1.156-.059a12.718,12.718,0,0,1-11.565-12.663Zm0,0" transform="translate(-81.093 -205.935)" fill="#ffedb1"/>
    <path id="Path_461" data-name="Path 461" d="M135.432,216.2a8.1,8.1,0,0,1-8.1-8.1v-34.7h1.156a15.035,15.035,0,0,1,15.035,15.035V208.1a8.1,8.1,0,0,1-8.1,8.1Zm0,0" transform="translate(-109.503 -149.122)" fill="#d2ebb9"/>
    <path id="Path_462" data-name="Path 462" d="M133.119,174.563l-5.783-1.156v33.54a4.626,4.626,0,0,0,4.626-4.626V201.6c0-10.7,5.2-17.252,1.157-27.034Zm0,0" transform="translate(-109.502 -149.121)" fill="#b4e6a0"/>
    <path id="Path_463" data-name="Path 463" d="M66.785,29.462c1.765-5.826-2.343-12.71-7.3-12.957a5.616,5.616,0,0,0-2.314.379c-3.759,1.446-3.975,6.072-2.53,8.1,3.414,4.779,4.843,2.819,4.843,13.228v22.24a4.626,4.626,0,0,0,4.626,4.626V53.75c0-6.361,5.783-7.18,5.783-13.734,0-5.783-4.554-5.783-3.108-10.554Zm0,0" transform="translate(-46.277 -14.188)" fill="#96d7a5"/>
    <path id="Path_464" data-name="Path 464" d="M190,222.957a78.415,78.415,0,0,1-2.6,15.323c-2.6,9.158-2.313,15.7-2.313,20.531a8.1,8.1,0,0,0,8.1-8.1V222.957h-3.469" transform="translate(-159.156 -191.733)" fill="#b4e6a0"/>
    <path id="Path_465" data-name="Path 465" d="M47.748,159.86a1.155,1.155,0,0,1-1.049-.669l-7.517-16.141a1.156,1.156,0,0,1,2.1-.976l7.517,16.141a1.157,1.157,0,0,1-1.047,1.644Zm0,0" transform="translate(-33.601 -121.603)" fill="#96d7a5"/>
    <path id="Path_466" data-name="Path 466" d="M81.255,206.088l-3.232-6.94a2.325,2.325,0,0,0-.237,1.021v3.945l2.2,4.732a1.155,1.155,0,0,0,1.049.669,1.2,1.2,0,0,0,.217-.048Zm0,0" transform="translate(-66.891 -171.258)" fill="#78c3a5"/>
    <g id="Group_79" data-name="Group 79" transform="translate(23.76 2.31)">
      <path id="Path_467" data-name="Path 467" d="M262.345,159.86a1.155,1.155,0,0,0,1.049-.669l7.517-16.141a1.156,1.156,0,0,0-2.1-.976L261.3,158.216a1.157,1.157,0,0,0,1.047,1.644Zm0,0" transform="translate(-248.371 -123.914)" fill="#96d7a5"/>
      <path id="Path_468" data-name="Path 468" d="M178.765,68.154a1.159,1.159,0,0,1-1.108-.823,6.609,6.609,0,0,0-2.535-3.277,16.625,16.625,0,0,1-5.385-7.428,1.156,1.156,0,0,1,2.153-.845,14.439,14.439,0,0,0,4.732,6.514,8.726,8.726,0,0,1,3.251,4.37,1.158,1.158,0,0,1-.775,1.441,1.178,1.178,0,0,1-.333.049Zm0,0" transform="translate(-169.656 -49.649)" fill="#96d7a5"/>
      <path id="Path_469" data-name="Path 469" d="M204.768,29.462c-1.765-5.826,2.343-12.71,7.3-12.957a5.618,5.618,0,0,1,2.313.379c3.759,1.446,3.975,6.072,2.53,8.1-3.414,4.779-4.843,2.819-4.843,13.228v22.24a4.626,4.626,0,0,1-4.626,4.626V53.75c0-6.361-5.783-7.18-5.783-13.734,0-5.783,4.554-5.783,3.108-10.554Zm0,0" transform="translate(-197.178 -16.498)" fill="#96d7a5"/>
    </g>
    <path id="Path_470" data-name="Path 470" d="M94.3,189.922v19.662a4.644,4.644,0,0,0,2.314,4.007V192.236a2.313,2.313,0,0,0-2.314-2.313Zm0,0" transform="translate(-81.094 -163.324)" fill="#78c3a5"/>
    <path id="Path_471" data-name="Path 471" d="M193.234,280.766a2.313,2.313,0,0,0-2.313,2.313v17.349a8.339,8.339,0,0,1-5.784,8.1h0a8.1,8.1,0,0,0,8.1-8.1Zm0,0" transform="translate(-159.208 -241.446)" fill="#96d7a5"/>
    <path id="Path_472" data-name="Path 472" d="M242.933,281v11.324a4.558,4.558,0,0,0,2.313-.619v-8.633a2.313,2.313,0,0,0-2.313-2.313h0Zm0,0" transform="translate(-208.908 -241.442)" fill="#78c3a5"/>
  </g>
  <g id="lemon" transform="translate(36.491 18.757)">
    <path id="Path_378" data-name="Path 378" d="M151.124,2.44a9.222,9.222,0,0,0-4.358,5.241,9.219,9.219,0,0,0,6.744-.991,9.38,9.38,0,0,0,4.015-4.325.789.789,0,0,0-.618-1.1,9.385,9.385,0,0,0-5.783,1.176Zm0,0" transform="translate(-127.625 -1.037)" fill="#b4e6a0"/>
    <path id="Path_379" data-name="Path 379" d="M156.906,1.264a9.385,9.385,0,0,0-5.783,1.176,9.22,9.22,0,0,0-4.358,5.241l10.726-6.02a.782.782,0,0,0-.585-.4Zm0,0" transform="translate(-127.625 -1.037)" fill="#96d7a5"/>
    <path id="Path_380" data-name="Path 380" d="M116.948.421a1.072,1.072,0,1,0-1.7,1.3,17.424,17.424,0,0,1,2.995,9.723v2.64h2.143v-2.64A19.432,19.432,0,0,0,116.948.421Zm0,0" transform="translate(-100.023 0)" fill="#96d7a5"/>
    <path id="Path_381" data-name="Path 381" d="M116.948.421a1.072,1.072,0,1,0-1.7,1.3,13.617,13.617,0,0,1,1.229,2.115,1.072,1.072,0,1,0,1.925-.945,15.425,15.425,0,0,0-1.45-2.471Zm0,0" transform="translate(-100.023 0)" fill="#78c3a5"/>
    <path id="Path_382" data-name="Path 382" d="M19.287,130.5c1.375,0,2.6-1.3,3.379-3.31a3.12,3.12,0,0,1,1.972-1.815c8.049-2.577,13.938-10.819,13.938-20.592,0-11.836-8.636-21.431-19.288-21.431S0,92.946,0,104.782c0,9.773,5.888,18.015,13.938,20.592a3.119,3.119,0,0,1,1.971,1.815c.784,2.013,2,3.31,3.379,3.31Zm0,0" transform="translate(0 -72.481)" fill="#ffe17d"/>
    <path id="Path_383" data-name="Path 383" d="M7.671,130.854C4,122.872,4.849,114.061,9.156,107.824A22.049,22.049,0,0,0,0,126.063c0,9.773,5.888,18.015,13.938,20.592a3.119,3.119,0,0,1,1.971,1.815c.784,2.013,2,3.31,3.379,3.31s2.6-1.3,3.379-3.31a3.121,3.121,0,0,1,1.972-1.815,18.162,18.162,0,0,0,3.984-1.85c-8.413.2-16.874-5.08-20.951-13.951Zm0,0" transform="translate(0 -93.762)" fill="#ffd164"/>
  </g>
  <g id="carrot" transform="translate(6.935 87.91) rotate(-97)">
    <path id="Path_230" data-name="Path 230" d="M1.1,7.915a1.1,1.1,0,0,1-.751-1.9L6.447.3a1.1,1.1,0,0,1,1.5,1.6l-6.1,5.72a1.1,1.1,0,0,1-.751.3Zm0,0" transform="translate(24.345 3.523)" fill="#b4e6a0"/>
    <path id="Path_231" data-name="Path 231" d="M1.1,10.245a1.085,1.085,0,0,1-.44-.092A1.1,1.1,0,0,1,.093,8.706L3.615.659a1.1,1.1,0,0,1,2.011.881L2.1,9.588a1.1,1.1,0,0,1-1.007.657Zm0,0" transform="translate(23.339 0.753)" fill="#b4e6a0"/>
    <path id="Path_232" data-name="Path 232" d="M1.1,10.557H1.089A1.1,1.1,0,0,1,0,9.45L.065,1.089A1.082,1.082,0,0,1,1.171,0,1.1,1.1,0,0,1,2.26,1.107L2.2,9.468A1.1,1.1,0,0,1,1.1,10.557Zm0,0" transform="translate(22.334 0)" fill="#96d7a5"/>
    <path id="Path_233" data-name="Path 233" d="M24.77.949C20.332-1.01,15.612-.058,13.408,4.936S-3.613,53.231.825,55.19,27.275,17.023,29.48,12.03,29.208,2.909,24.77.949Zm0,0" transform="translate(0 8.303)" fill="#ffaa5f"/>
    <path id="Path_234" data-name="Path 234" d="M.825,55.182c.391.173.921.017,1.56-.413C6.017,38.794,16.722,8.3,18.313,4.692A7.913,7.913,0,0,1,22.71.256a7.677,7.677,0,0,0-9.3,4.671C11.2,9.92-3.613,53.223.825,55.182Zm0,0" transform="translate(0 8.311)" fill="#ff8c5a"/>
    <path id="Path_235" data-name="Path 235" d="M3.11,3.079a1.092,1.092,0,0,1-.44-.092L.657,2.105A1.1,1.1,0,0,1,1.539.094L3.552.976a1.1,1.1,0,0,1-.442,2.1Zm0,0" transform="translate(20.428 15.36)" fill="#ff8c5a"/>
    <path id="Path_236" data-name="Path 236" d="M5.121,3.96a1.092,1.092,0,0,1-.44-.092L.658,2.105A1.1,1.1,0,0,1,1.539.094L5.563,1.856a1.1,1.1,0,0,1-.442,2.1Zm0,0" transform="translate(13.763 19.634)" fill="#ff8c5a"/>
    <path id="Path_237" data-name="Path 237" d="M3.109,3.078a1.083,1.083,0,0,1-.44-.092L.658,2.106A1.1,1.1,0,0,1,1.539.094L3.551.975a1.1,1.1,0,0,1-.442,2.1Zm0,0" transform="translate(7.849 38.62)" fill="#ff8c5a"/>
    <path id="Path_238" data-name="Path 238" d="M3.6,3.8a1.084,1.084,0,0,0,.451.1,1.1,1.1,0,0,0,.452-2.1L.51,0C.33.743.158,1.473,0,2.178Zm0,0" transform="translate(1.333 49.796)" fill="#ff8c5a"/>
    <path id="Path_239" data-name="Path 239" d="M4.14,1.639.508,0C.329.743.158,1.474,0,2.179L3.528,3.771q.3-1.054.613-2.132Zm0,0" transform="translate(1.333 49.795)" fill="#ff7350"/>
    <path id="Path_240" data-name="Path 240" d="M1.54.094A1.1,1.1,0,0,0,.656,2.1L4.492,3.789q.592-.924,1.188-1.875Zm0,0" transform="translate(8.227 45.977)" fill="#ff8c5a"/>
    <path id="Path_241" data-name="Path 241" d="M.093.658A1.1,1.1,0,0,0,.657,2.1l.206.09Q1.2,1.14,1.534.092A1.094,1.094,0,0,0,.093.658Zm0,0" transform="translate(7.849 38.621)" fill="#ff7350"/>
    <path id="Path_242" data-name="Path 242" d="M4.472,4.054a1.1,1.1,0,0,0,.877-2.014L.667,0Q.334,1.042,0,2.105Zm0,0" transform="translate(6.68 30.637)" fill="#ff8c5a"/>
    <path id="Path_243" data-name="Path 243" d="M4.069,3.879q.349-1.058.692-2.094L.667,0Q.341,1.02.014,2.062L0,2.105Zm0,0" transform="translate(6.68 30.637)" fill="#ff7350"/>
    <path id="Path_244" data-name="Path 244" d="M1.534.092A1.1,1.1,0,0,0,.661,2.106L6.779,4.759q.554-.986,1.076-1.925Zm0,0" transform="translate(16.151 27.871)" fill="#ff8c5a"/>
    <path id="Path_245" data-name="Path 245" d="M3.957,3.711A1.1,1.1,0,0,0,4.838,1.7L.966,0A10.2,10.2,0,0,0,.3,1.245c-.082.186-.187.441-.3.73Zm0,0" transform="translate(13.106 11.994)" fill="#ff8c5a"/>
    <path id="Path_246" data-name="Path 246" d="M0,1.978v0L3.957,3.716a1.028,1.028,0,0,0,.181.038c.307-.825.564-1.5.766-2-.025-.013-.04-.035-.066-.046L.956,0A10.244,10.244,0,0,0,.3,1.25c-.053.121-.121.284-.188.448-.037.09-.073.179-.113.28Zm0,0" transform="translate(13.106 11.989)" fill="#ff7350"/>
    <path id="Path_247" data-name="Path 247" d="M1.539.094A1.1,1.1,0,1,0,.658,2.105l.576.252c.254-.723.5-1.419.733-2.076Zm0,0" transform="translate(13.763 19.634)" fill="#ff7350"/>
  </g>
</svg>
