<svg id="basket_lineal" xmlns="http://www.w3.org/2000/svg" width="65" height="65" viewBox="0 0 65 65">
  <path id="Path_282" data-name="Path 282" d="M78.833,39.833H66.5L55.871,18.475a4.451,4.451,0,0,0-7.371-.917,4.451,4.451,0,0,0-7.371.917l-2.842,5.709,1.94.966,2.842-5.709a2.279,2.279,0,0,1,2.05-1.274,2.248,2.248,0,0,1,1.946,1.087,2.305,2.305,0,0,1,.1,2.256l-9.09,18.323H32.916l6.232-12.517-1.94-.966L30.5,39.833H18.167A2.169,2.169,0,0,0,16,42v4.333A2.169,2.169,0,0,0,18.167,48.5h1.219l3.832,28.739A4.347,4.347,0,0,0,27.512,81H69.488a4.347,4.347,0,0,0,4.3-3.761l1.068-8.013L72.7,68.94l-1.068,8.013a2.173,2.173,0,0,1-2.148,1.88H27.512a2.173,2.173,0,0,1-2.148-1.88L21.571,48.5H75.429L72.993,66.773l2.148.286L77.615,48.5h1.219A2.169,2.169,0,0,0,81,46.333V42a2.169,2.169,0,0,0-2.167-2.167Zm-28.9-20.58a2.248,2.248,0,0,1,1.946-1.087,2.279,2.279,0,0,1,2.05,1.274L64.084,39.833H58.922L49.831,21.509h0a2.305,2.305,0,0,1,.1-2.255ZM48.5,23.7l8,16.132H40.5ZM78.833,46.333H18.167V42H78.833v4.333ZM45.25,53.916v19.5a3.25,3.25,0,0,0,6.5,0v-19.5a3.25,3.25,0,0,0-6.5,0Zm4.333,0v19.5a1.083,1.083,0,0,1-2.167,0v-19.5a1.083,1.083,0,1,1,2.167,0ZM38.75,58.25V73.416a1.083,1.083,0,0,0,2.167,0v-19.5a1.083,1.083,0,1,0-2.167,0v2.167H36.583V53.916a3.25,3.25,0,0,1,6.5,0v19.5a3.25,3.25,0,0,1-6.5,0V58.25Zm23.833-4.333v19.5a3.25,3.25,0,0,0,6.5,0v-19.5a3.25,3.25,0,0,0-6.5,0Zm4.333,0v19.5a1.083,1.083,0,0,1-2.167,0v-19.5a1.083,1.083,0,1,1,2.167,0Zm-13,0v19.5a3.25,3.25,0,0,0,6.5,0v-19.5a3.25,3.25,0,0,0-6.5,0Zm4.333,0v19.5a1.083,1.083,0,0,1-2.167,0v-19.5a1.083,1.083,0,1,1,2.167,0Zm-30.333,0v19.5a3.25,3.25,0,1,0,6.5,0v-19.5a3.25,3.25,0,1,0-6.5,0Zm4.333,0v19.5a1.083,1.083,0,0,1-2.167,0v-19.5a1.083,1.083,0,1,1,2.167,0Z" transform="translate(-16 -15.999)"/>
</svg>
