<svg id="Basket" xmlns="http://www.w3.org/2000/svg" width="65" height="65" viewBox="0 0 65 65">
  <rect id="Rectangle_20" data-name="Rectangle 20" width="65" height="6.724" rx="3.362" transform="translate(0 24.655)" fill="#e4989d"/>
  <path id="Path_278" data-name="Path 278" d="M106.276,248l-.3,2.241L102.183,278.7a3.362,3.362,0,0,1-3.333,2.918H55.426a3.362,3.362,0,0,1-3.333-2.918L48.3,250.241,48,248Z" transform="translate(-44.638 -216.621)" fill="#e4989d"/>
  <g id="Group_40" data-name="Group 40" transform="translate(12.328 35.862)">
    <rect id="Rectangle_21" data-name="Rectangle 21" width="4.483" height="24.655" rx="2.241" transform="translate(17.931)" fill="#e28086"/>
    <rect id="Rectangle_22" data-name="Rectangle 22" width="4.483" height="24.655" rx="2.241" transform="translate(8.966)" fill="#e28086"/>
    <rect id="Rectangle_23" data-name="Rectangle 23" width="4.483" height="24.655" rx="2.241" transform="translate(35.862)" fill="#e28086"/>
    <rect id="Rectangle_24" data-name="Rectangle 24" width="4.483" height="24.655" rx="2.241" transform="translate(26.897)" fill="#e28086"/>
    <rect id="Rectangle_25" data-name="Rectangle 25" width="4.483" height="24.655" rx="2.241" transform="translate(0)" fill="#e28086"/>
  </g>
  <path id="Path_279" data-name="Path 279" d="M145.558,29.077l-9.713,19.578H128l11.309-22.716a3.5,3.5,0,1,1,6.249,3.138Z" transform="translate(-113.431 -24)" fill="#756e78"/>
  <path id="Path_280" data-name="Path 280" d="M256.373,29.077l9.713,19.578h7.845L262.622,25.939a3.5,3.5,0,1,0-6.249,3.138Z" transform="translate(-223.5 -24)" fill="#756e78"/>
  <path id="Path_281" data-name="Path 281" d="M106.276,248l-.3,2.241H48.3L48,248Z" transform="translate(-44.638 -216.621)" fill="#dd636e"/>
</svg>
