<svg id="broccoli" xmlns="http://www.w3.org/2000/svg" width="82.667" height="80" viewBox="0 0 82.667 80">
  <path id="Path_4353" data-name="Path 4353" d="M63.333,42.25c-4.516,4.11-8.408,10.166-10.646,14.035a1.083,1.083,0,0,1-2.021-.546V38.778L39.5,37.888,36.633,53.817A1.08,1.08,0,0,1,34.6,54.1,100.679,100.679,0,0,0,23.833,37.611L20,36.583l-.667,3.75c9.677,13.978,13.951,31.557,14.985,37.452A2.67,2.67,0,0,0,36.946,80H49.78a2.661,2.661,0,0,0,2.613-2.136c1.262-6.326,6.385-25.8,16.273-34.587Zm0,0" fill="#cdf5a0"/>
  <path id="Path_4354" data-name="Path 4354" d="M65.518,42.671l-2.185-.421c-4.516,4.11-8.408,10.166-10.646,14.035a1.084,1.084,0,0,1-2.021-.547V62.5a1.494,1.494,0,0,0,2.944.362c2.2-8.3,8.093-15.9,11.908-20.194Zm0,0" fill="#b4e6a0"/>
  <path id="Path_4355" data-name="Path 4355" d="M44.112,38.256,39.5,37.889,36.633,53.817A1.08,1.08,0,0,1,34.6,54.1,100.707,100.707,0,0,0,23.833,37.611L20,36.583l-.667,3.75c9.677,13.978,13.951,31.557,14.985,37.453A2.669,2.669,0,0,0,36.946,80h4.52Zm0,0" fill="#b4e6a0"/>
  <path id="Path_4356" data-name="Path 4356" d="M19.333,40.334c9.677,13.978,13.951,31.557,14.985,37.452A2.67,2.67,0,0,0,36.946,80H37.2C34.7,55.3,23.59,41.3,19.881,37.25Zm0,0" fill="#96d7a5"/>
  <path id="Path_4357" data-name="Path 4357" d="M68,14.667a14.716,14.716,0,0,0-2.034.157A19.982,19.982,0,0,0,31.2,7.327,15.962,15.962,0,0,0,10.9,20.055a12,12,0,1,0,11.448,18,15.829,15.829,0,0,0,12.717-1.791,19.924,19.924,0,0,0,20.9,1.432A14.664,14.664,0,1,0,68,14.667Zm0,0" fill="#96cd82"/>
  <path id="Path_4358" data-name="Path 4358" d="M55.593,37.12a2.745,2.745,0,0,0-2.7-1.273A16.512,16.512,0,0,1,50.667,36a17.3,17.3,0,0,1-14.7-8.174,2.649,2.649,0,0,0-2.5-1.226c-.484.044-.973.067-1.468.067a17.341,17.341,0,0,1-17.127-14.8A16.019,16.019,0,0,0,10.9,20.055a12,12,0,1,0,11.447,18,15.823,15.823,0,0,0,12.717-1.791,19.924,19.924,0,0,0,20.9,1.432s-.2-.31-.37-.58Zm0,0" fill="#78bd8c"/>
</svg>
