<svg id="broccoli" xmlns="http://www.w3.org/2000/svg" width="82.586" height="80" viewBox="0 0 82.586 80">
  <path id="broccoli-2" data-name="broccoli" d="M82.586,29.655A15.451,15.451,0,0,0,67.154,14.222c-.364,0-.724.013-1.083.038a20.781,20.781,0,0,0-7.19-10.1A20.615,20.615,0,0,0,31.036,6.94a16.732,16.732,0,0,0-20.3,12.63,12.845,12.845,0,1,0,9.422,23.222C28.9,55.834,32.254,70.9,33.3,76.851A3.794,3.794,0,0,0,37.039,80H49.485a3.8,3.8,0,0,0,3.72-3.044c1.072-5.372,5.255-23.39,14.426-31.876A15.45,15.45,0,0,0,82.586,29.655ZM50.833,76.482a1.375,1.375,0,0,1-1.348,1.1H42.8l1.734-28.4a1.21,1.21,0,0,0-2.415-.147L40.376,77.58H37.039a1.378,1.378,0,0,1-1.357-1.147C34.6,70.291,31.133,54.7,22.024,41.224a12.733,12.733,0,0,0,1.41-1.7q.45.1.905.175c3.034,3.879,8.208,11.03,10.649,17.54a1.21,1.21,0,0,0,1.132.785c.035,0,.071,0,.107-.005a1.21,1.21,0,0,0,1.083-.985L40.4,40.294a20.333,20.333,0,0,0,2.216.553l-.185,3.024a1.21,1.21,0,0,0,1.134,1.281c.025,0,.05,0,.075,0a1.211,1.211,0,0,0,1.207-1.136l.175-2.861c.478.033.958.052,1.44.052a20.433,20.433,0,0,0,2.669-.177V59.395a1.209,1.209,0,0,0,.953,1.182,1.194,1.194,0,0,0,.257.028,1.21,1.21,0,0,0,1.1-.709c.044-.1,4.4-9.568,10.779-15.618a15.4,15.4,0,0,0,2.227.571c-3.474,3.777-6.54,9.114-9.133,15.915a101.59,101.59,0,0,0-4.486,15.718ZM35.176,37.823a20.663,20.663,0,0,0,2.928,1.6L35.65,52.7a80.02,80.02,0,0,0-8.1-12.8,16.671,16.671,0,0,0,7.623-2.082Zm16.378,2.742A20.706,20.706,0,0,0,55.107,39.3a15.44,15.44,0,0,0,4.724,3.934,55.218,55.218,0,0,0-8.277,11.227Zm15.6,2.1a13.031,13.031,0,0,1-10.609-5.475,1.213,1.213,0,0,0-1.627-.495,18.089,18.089,0,0,1-17.523-.353c.332-.261.657-.532.971-.818a1.21,1.21,0,0,0-1.634-1.784,14.333,14.333,0,0,1-13.351,3.273,1.211,1.211,0,0,0-1.091.058l-.016.009a1.212,1.212,0,0,0-.5.561A10.428,10.428,0,1,1,10.38,22.109c-.023.358-.036.718-.036,1.081a1.21,1.21,0,0,0,2.42,0A14.3,14.3,0,0,1,29.387,9.073a20.92,20.92,0,0,0-1.149,1.914,1.21,1.21,0,0,0,2.139,1.131A18.192,18.192,0,0,1,57.421,6.089a18.351,18.351,0,0,1,6.221,8.535,15.3,15.3,0,0,0-2.5.812,1.21,1.21,0,0,0,.943,2.229,13.015,13.015,0,1,1,5.065,25Zm0,0" transform="translate(0 0.001)"/>
</svg>
