<svg xmlns="http://www.w3.org/2000/svg" width="51.193" height="80" viewBox="0 0 51.193 80">
  <g id="carrot" transform="translate(-0.078)">
    <path id="Path_4496" data-name="Path 4496" d="M31.761,20.426c-4.872,1.488-7.969,5.483-6.295,10.963S45.078,81.452,49.949,79.964,44.782,31.481,43.107,26s-6.475-7.063-11.346-5.574Zm0,0" fill="#ffaa5f"/>
    <g id="Group_158" data-name="Group 158">
      <path id="Path_4497" data-name="Path 4497" d="M49.949,79.964c.43-.131.743-.619.957-1.4C42.831,63.376,30.411,31.793,29.2,27.837a8.307,8.307,0,0,1,.451-6.542,8.061,8.061,0,0,0-4.188,10.095c1.674,5.481,19.611,50.062,24.483,48.574Zm0,0" fill="#ff8c5a"/>
      <path id="Path_4498" data-name="Path 4498" d="M37.085,28.572a1.14,1.14,0,0,1-.413.228l-2.2.681a1.153,1.153,0,1,1-.68-2.2l2.2-.681a1.153,1.153,0,0,1,1.092,1.975Zm0,0" fill="#ff8c5a"/>
      <path id="Path_4499" data-name="Path 4499" d="M36.924,35.861a1.153,1.153,0,0,1-.413.229L32.1,37.451a1.153,1.153,0,0,1-.68-2.2l4.407-1.362a1.153,1.153,0,0,1,1.093,1.975Zm0,0" fill="#ff8c5a"/>
      <path id="Path_4500" data-name="Path 4500" d="M43.048,55.689a1.14,1.14,0,0,1-.413.228l-2.2.681a1.153,1.153,0,0,1-.68-2.2l2.2-.681a1.153,1.153,0,0,1,1.093,1.975Zm0,0" fill="#ff8c5a"/>
      <path id="Path_4501" data-name="Path 4501" d="M46.428,69.281a1.139,1.139,0,0,0,.425-.231,1.153,1.153,0,0,0-1.08-1.978L41.359,68.38c.367.714.731,1.412,1.089,2.081Zm0,0" fill="#ff8c5a"/>
    </g>
    <path id="Path_4502" data-name="Path 4502" d="M45.369,67.191,41.359,68.38c.367.714.731,1.412,1.089,2.081l3.9-1.155q-.486-1.043-.977-2.114Zm0,0" fill="#ff7350"/>
    <path id="Path_4503" data-name="Path 4503" d="M45.1,59.982a1.152,1.152,0,0,0,.677,2.2l4.2-1.293q-.164-1.141-.342-2.306Zm0,0" fill="#ff8c5a"/>
    <path id="Path_4504" data-name="Path 4504" d="M38.991,55.836a1.153,1.153,0,0,0,1.442.762l.225-.07q-.458-1.068-.909-2.132a1.148,1.148,0,0,0-.757,1.439Zm0,0" fill="#ff7350"/>
    <path id="Path_4505" data-name="Path 4505" d="M38.393,49.987a1.153,1.153,0,1,0-.685-2.2l-5.121,1.591q.45,1.056.915,2.131Zm0,0" fill="#ff8c5a"/>
    <path id="Path_4506" data-name="Path 4506" d="M37.952,50.125q-.45-1.08-.887-2.14l-4.479,1.392q.441,1.035.9,2.086l.019.045Zm0,0" fill="#ff7350"/>
    <path id="Path_4507" data-name="Path 4507" d="M38.97,40.158a1.152,1.152,0,1,0,.688,2.2l6.682-2.089Q46.1,39.1,45.873,38Zm0,0" fill="#ff8c5a"/>
    <path id="Path_4508" data-name="Path 4508" d="M31.424,35.248a1.153,1.153,0,0,0,.68,2.2l.632-.2c-.295-.749-.577-1.47-.842-2.153Zm0,0" fill="#ff7350"/>
    <path id="Path_4509" data-name="Path 4509" d="M29.686,13.311a1.277,1.277,0,0,1-.873-2.209l7.1-6.657a1.277,1.277,0,0,1,1.747,1.864l-7.1,6.657a1.274,1.274,0,0,1-.873.345Zm0,0" fill="#b4e6a0"/>
    <path id="Path_4510" data-name="Path 4510" d="M28.514,12.8A1.263,1.263,0,0,1,28,12.69a1.278,1.278,0,0,1-.657-1.683l4.1-9.364a1.278,1.278,0,0,1,2.341,1.025l-4.1,9.365a1.277,1.277,0,0,1-1.171.765Zm0,0" fill="#b4e6a0"/>
    <path id="Path_4511" data-name="Path 4511" d="M27.345,12.285h-.01A1.278,1.278,0,0,1,26.068,11l.075-9.73A1.26,1.26,0,0,1,27.43,0,1.278,1.278,0,0,1,28.7,1.288l-.074,9.73A1.278,1.278,0,0,1,27.345,12.285Zm0,0" fill="#96d7a5"/>
    <path id="Path_4512" data-name="Path 4512" d="M28.9,10.767C23.738,8.488,18.246,9.6,15.681,15.406s-19.808,56.2-14.644,58.48,30.78-44.414,33.345-50.224S34.067,13.048,28.9,10.767Zm0,0" fill="#ffaa5f"/>
    <path id="Path_4513" data-name="Path 4513" d="M1.038,73.886c.455.2,1.072.02,1.816-.48C7.08,54.815,19.537,19.326,21.389,15.132A9.208,9.208,0,0,1,26.505,9.97a8.934,8.934,0,0,0-10.824,5.435c-2.565,5.81-19.808,56.2-14.644,58.48Zm0,0" fill="#ff8c5a"/>
    <path id="Path_4514" data-name="Path 4514" d="M27.468,21.458a1.27,1.27,0,0,1-.511-.107l-2.342-1.026a1.278,1.278,0,0,1,1.026-2.341l2.342,1.026a1.278,1.278,0,0,1-.515,2.448Zm0,0" fill="#ff8c5a"/>
    <path id="Path_4515" data-name="Path 4515" d="M22.053,27.456a1.27,1.27,0,0,1-.511-.107L16.859,25.3a1.278,1.278,0,0,1,1.025-2.341l4.683,2.05a1.278,1.278,0,0,1-.515,2.448Zm0,0" fill="#ff8c5a"/>
    <path id="Path_4516" data-name="Path 4516" d="M12.83,48.524a1.26,1.26,0,0,1-.511-.107L9.978,47.392A1.278,1.278,0,1,1,11,45.051l2.341,1.025a1.278,1.278,0,0,1-.514,2.448Zm0,0" fill="#ff8c5a"/>
    <path id="Path_4517" data-name="Path 4517" d="M5.822,62.373a1.261,1.261,0,0,0,.524.114,1.277,1.277,0,0,0,.526-2.441l-4.65-2.1c-.209.864-.41,1.714-.593,2.535Zm0,0" fill="#ff8c5a"/>
    <path id="Path_4518" data-name="Path 4518" d="M6.447,59.853,2.22,57.946c-.209.864-.408,1.715-.591,2.535l4.105,1.853q.348-1.227.713-2.481Zm0,0" fill="#ff7350"/>
    <path id="Path_4519" data-name="Path 4519" d="M11.444,53.613a1.277,1.277,0,0,0-1.028,2.339l4.464,1.961q.688-1.076,1.382-2.182Zm0,0" fill="#ff8c5a"/>
    <path id="Path_4520" data-name="Path 4520" d="M9.32,45.709a1.278,1.278,0,0,0,.657,1.683l.239.1q.389-1.227.781-2.447a1.273,1.273,0,0,0-1.678.659Zm0,0" fill="#ff7350"/>
    <path id="Path_4521" data-name="Path 4521" d="M13.055,40.369a1.278,1.278,0,0,0,1.021-2.343L8.627,35.651q-.387,1.212-.776,2.45Zm0,0" fill="#ff8c5a"/>
    <path id="Path_4522" data-name="Path 4522" d="M12.585,40.165q.406-1.231.806-2.437L8.627,35.651q-.379,1.187-.759,2.4l-.016.051Zm0,0" fill="#ff7350"/>
    <path id="Path_4523" data-name="Path 4523" d="M20.659,32.541a1.277,1.277,0,0,0-1.016,2.343l7.119,3.087q.645-1.147,1.252-2.241Zm0,0" fill="#ff8c5a"/>
    <path id="Path_4524" data-name="Path 4524" d="M19.933,18.276a1.278,1.278,0,0,0,1.025-2.341l-4.506-1.978a11.864,11.864,0,0,0-.772,1.448c-.1.216-.218.513-.352.849Zm0,0" fill="#ff8c5a"/>
    <path id="Path_4525" data-name="Path 4525" d="M15.33,16.253v0l4.6,2.021a1.2,1.2,0,0,0,.211.044c.358-.959.656-1.74.892-2.331-.029-.015-.047-.041-.077-.054l-4.517-1.984a11.922,11.922,0,0,0-.76,1.454c-.062.141-.14.33-.219.522-.043.1-.085.209-.132.325Zm0,0" fill="#ff7350"/>
    <path id="Path_4526" data-name="Path 4526" d="M17.885,22.957A1.278,1.278,0,1,0,16.859,25.3l.671.294c.3-.842.581-1.652.853-2.416Zm0,0" fill="#ff7350"/>
  </g>
</svg>
