<svg id="garbage" xmlns="http://www.w3.org/2000/svg" width="57.129" height="65" viewBox="0 0 57.129 65">
  <path id="Path_283" data-name="Path 283" d="M183.139,0H171.713A5.705,5.705,0,0,0,166,5.713V9.521a1.886,1.886,0,0,0,1.9,1.9h19.043a1.886,1.886,0,0,0,1.9-1.9V5.713A5.705,5.705,0,0,0,183.139,0Zm1.9,7.617H169.809v-1.9a1.886,1.886,0,0,1,1.9-1.9h11.426a1.886,1.886,0,0,1,1.9,1.9Z" transform="translate(-148.861)" fill="#aeadb3"/>
  <path id="Path_284" data-name="Path 284" d="M267.426,5.713V9.521a1.886,1.886,0,0,1-1.9,1.9H256V7.617h7.617v-1.9a1.886,1.886,0,0,0-1.9-1.9H256V0h5.713A5.705,5.705,0,0,1,267.426,5.713Z" transform="translate(-227.436)" fill="#8b8892"/>
  <path id="Path_285" data-name="Path 285" d="M108.576,120h-45.7a1.923,1.923,0,0,0-1.9,2.057l3.5,42.491a5.687,5.687,0,0,0,5.675,5.218H101.3a5.687,5.687,0,0,0,5.675-5.218l3.5-42.491A1.923,1.923,0,0,0,108.576,120Z" transform="translate(-57.16 -104.766)" fill="#c8c6cd"/>
  <path id="Path_286" data-name="Path 286" d="M280.756,122.057l-3.5,42.491a5.687,5.687,0,0,1-5.675,5.218H256V120h22.852A1.923,1.923,0,0,1,280.756,122.057Z" transform="translate(-227.436 -104.766)" fill="#aeadb3"/>
  <path id="Path_287" data-name="Path 287" d="M82.416,60h-45.7A5.705,5.705,0,0,0,31,65.713v3.809a1.886,1.886,0,0,0,1.9,1.9h53.32a1.886,1.886,0,0,0,1.9-1.9V65.713A5.705,5.705,0,0,0,82.416,60Z" transform="translate(-31 -52.383)" fill="#756e78"/>
  <path id="Path_288" data-name="Path 288" d="M244.809,181.9v26.914a1.9,1.9,0,0,1-3.809,0V181.9a1.9,1.9,0,0,1,3.809,0Z" transform="translate(-214.34 -157.148)" fill="#aeadb3"/>
  <path id="Path_289" data-name="Path 289" d="M331,208.94V182.026a1.9,1.9,0,0,1,3.809,0V208.94A1.9,1.9,0,0,1,331,208.94Z" transform="translate(-292.914 -157.271)" fill="#8b8892"/>
  <path id="Path_290" data-name="Path 290" d="M151,208.94V182.026a1.9,1.9,0,0,1,3.809,0V208.94A1.9,1.9,0,0,1,151,208.94Z" transform="translate(-135.766 -157.271)" fill="#aeadb3"/>
  <path id="Path_291" data-name="Path 291" d="M257.9,181.9v26.914a1.837,1.837,0,0,1-1.9,1.9V180A1.837,1.837,0,0,1,257.9,181.9Z" transform="translate(-227.436 -157.148)" fill="#8b8892"/>
  <path id="Path_292" data-name="Path 292" d="M284.564,65.713v3.809a1.886,1.886,0,0,1-1.9,1.9H256V60h22.852A5.705,5.705,0,0,1,284.564,65.713Z" transform="translate(-227.436 -52.383)" fill="#616161"/>
</svg>
