<svg xmlns="http://www.w3.org/2000/svg" width="79.594" height="80" viewBox="0 0 79.594 80">
  <g id="lemon" transform="translate(0 0)">
    <path id="Path_4704" data-name="Path 4704" d="M28.154,1.682a11.049,11.049,0,0,0-5.222,6.279,11.045,11.045,0,0,0,8.08-1.188,11.238,11.238,0,0,0,4.81-5.182.945.945,0,0,0-.74-1.318,11.244,11.244,0,0,0-6.928,1.409Zm0,0" fill="#b4e6a0"/>
    <path id="Path_4705" data-name="Path 4705" d="M35.082.273a11.244,11.244,0,0,0-6.928,1.409,11.047,11.047,0,0,0-5.222,6.279L35.782.749a.937.937,0,0,0-.7-.476Zm0,0" fill="#96d7a5"/>
    <path id="Path_4706" data-name="Path 4706" d="M20.277.5a1.284,1.284,0,1,0-2.041,1.558,20.875,20.875,0,0,1,3.588,11.649v3.163h2.568V13.712A23.281,23.281,0,0,0,20.277.5Zm0,0" fill="#96d7a5"/>
    <path id="Path_4707" data-name="Path 4707" d="M20.277.5a1.284,1.284,0,1,0-2.041,1.558A16.313,16.313,0,0,1,19.708,4.6a1.285,1.285,0,1,0,2.307-1.132A18.48,18.48,0,0,0,20.277.5Zm0,0" fill="#78c3a5"/>
    <path id="Path_4708" data-name="Path 4708" d="M23.108,69.51c1.647,0,3.11-1.554,4.048-3.966a3.738,3.738,0,0,1,2.362-2.174c9.643-3.087,16.7-12.962,16.7-24.67,0-14.18-10.346-25.676-23.108-25.676S0,24.519,0,38.7C0,50.408,7.054,60.282,16.7,63.37a3.736,3.736,0,0,1,2.361,2.175c.939,2.411,2.4,3.965,4.048,3.965Zm0,0" fill="#ffe17d"/>
    <path id="Path_4709" data-name="Path 4709" d="M9.191,44.438c-4.4-9.563-3.381-20.118,1.779-27.591A26.416,26.416,0,0,0,0,38.7C0,50.408,7.054,60.283,16.7,63.37a3.736,3.736,0,0,1,2.361,2.175c.939,2.411,2.4,3.965,4.048,3.965s3.11-1.554,4.048-3.965a3.739,3.739,0,0,1,2.362-2.175,21.758,21.758,0,0,0,4.774-2.217c-10.079.241-20.216-6.086-25.1-16.715Zm0,0" fill="#ffd164"/>
    <path id="Path_4710" data-name="Path 4710" d="M79.593,55.609C79.593,69.08,69.87,80,53.918,80S28.243,69.08,28.243,55.609s9.723-24.391,25.676-24.391,25.675,10.92,25.675,24.391Zm0,0" fill="#ffe17d"/>
    <path id="Path_4711" data-name="Path 4711" d="M53.918,33.785c-13.606,0-23.108,8.974-23.108,21.824s9.5,21.824,23.108,21.824,23.107-8.975,23.107-21.824-9.5-21.824-23.107-21.824Zm0,0" fill="#fff6d8"/>
    <g id="Group_165" data-name="Group 165">
      <path id="Path_4712" data-name="Path 4712" d="M51.259,36.5a21.72,21.72,0,0,0-9.38,3,1.293,1.293,0,0,0-.239,2.014l8.8,8.8a1.284,1.284,0,0,0,2.192-.908V37.781A1.276,1.276,0,0,0,51.259,36.5Zm0,0" fill="#ffe17d"/>
      <path id="Path_4713" data-name="Path 4713" d="M48.627,52.133l-9.067-9.067a1.294,1.294,0,0,0-1.906.09,18.307,18.307,0,0,0-4.09,9.706,1.3,1.3,0,0,0,1.277,1.463H47.72a1.284,1.284,0,0,0,.908-2.192Zm0,0" fill="#ffe17d"/>
      <path id="Path_4714" data-name="Path 4714" d="M47.72,56.892H34.842a1.3,1.3,0,0,0-1.277,1.463,18.307,18.307,0,0,0,4.09,9.706,1.294,1.294,0,0,0,1.906.09l9.067-9.067a1.284,1.284,0,0,0-.908-2.192Zm0,0" fill="#ffe17d"/>
      <path id="Path_4715" data-name="Path 4715" d="M55.2,37.781V49.41a1.284,1.284,0,0,0,2.192.908l8.8-8.8a1.293,1.293,0,0,0-.239-2.014,21.712,21.712,0,0,0-9.38-3A1.275,1.275,0,0,0,55.2,37.781Zm0,0" fill="#ffe17d"/>
      <path id="Path_4716" data-name="Path 4716" d="M59.209,59.084l9.067,9.067a1.3,1.3,0,0,0,1.906-.09,18.307,18.307,0,0,0,4.089-9.706A1.3,1.3,0,0,0,73,56.892H60.117a1.284,1.284,0,0,0-.908,2.192Zm0,0" fill="#ffe17d"/>
      <path id="Path_4717" data-name="Path 4717" d="M60.117,54.325H72.995a1.3,1.3,0,0,0,1.277-1.463,18.312,18.312,0,0,0-4.09-9.706,1.3,1.3,0,0,0-1.906-.09l-9.067,9.067a1.284,1.284,0,0,0,.908,2.192Zm0,0" fill="#ffe17d"/>
      <path id="Path_4718" data-name="Path 4718" d="M55.2,61.807V73.436a1.276,1.276,0,0,0,1.375,1.282,21.721,21.721,0,0,0,9.38-3A1.293,1.293,0,0,0,66.2,69.7l-8.8-8.8a1.284,1.284,0,0,0-2.191.908Zm0,0" fill="#ffe17d"/>
      <path id="Path_4719" data-name="Path 4719" d="M50.443,60.9l-8.8,8.8a1.293,1.293,0,0,0,.239,2.014,21.721,21.721,0,0,0,9.38,3,1.276,1.276,0,0,0,1.376-1.282V61.807a1.284,1.284,0,0,0-2.191-.908Zm0,0" fill="#ffe17d"/>
    </g>
    <path id="Path_4720" data-name="Path 4720" d="M44.356,44.231l6.087,6.087a1.284,1.284,0,0,0,2.191-.908V41.539a16.4,16.4,0,0,0-8.278,2.692Zm0,0" fill="#ffedb1"/>
    <path id="Path_4721" data-name="Path 4721" d="M55.2,41.539V49.41a1.284,1.284,0,0,0,2.192.908l6.086-6.087A16.4,16.4,0,0,0,55.2,41.539Zm0,0" fill="#ffedb1"/>
    <path id="Path_4722" data-name="Path 4722" d="M65.463,45.879l-6.254,6.254a1.284,1.284,0,0,0,.908,2.192h9.146a13.334,13.334,0,0,0-3.8-8.446Zm0,0" fill="#ffedb1"/>
    <path id="Path_4723" data-name="Path 4723" d="M69.261,56.892H60.116a1.284,1.284,0,0,0-.908,2.192l6.254,6.254a13.33,13.33,0,0,0,3.8-8.446Zm0,0" fill="#ffedb1"/>
    <path id="Path_4724" data-name="Path 4724" d="M63.48,66.986,57.394,60.9a1.284,1.284,0,0,0-2.192.908v7.871a16.39,16.39,0,0,0,8.278-2.692Zm0,0" fill="#ffedb1"/>
    <path id="Path_4725" data-name="Path 4725" d="M50.443,60.9l-6.087,6.087a16.4,16.4,0,0,0,8.278,2.692V61.807a1.284,1.284,0,0,0-2.191-.908Zm0,0" fill="#ffedb1"/>
    <path id="Path_4726" data-name="Path 4726" d="M47.72,56.892H38.575a13.334,13.334,0,0,0,3.8,8.446l6.254-6.254a1.284,1.284,0,0,0-.908-2.192Zm0,0" fill="#ffedb1"/>
    <path id="Path_4727" data-name="Path 4727" d="M42.373,45.879a13.33,13.33,0,0,0-3.8,8.446H47.72a1.284,1.284,0,0,0,.908-2.192Zm0,0" fill="#ffedb1"/>
    <path id="Path_4728" data-name="Path 4728" d="M57.128,55.388a3.21,3.21,0,1,1-3.209-3.209A3.209,3.209,0,0,1,57.128,55.388Zm0,0" fill="#fff"/>
  </g>
</svg>
