<svg xmlns="http://www.w3.org/2000/svg" width="57.857" height="80" viewBox="0 0 57.857 80">
  <g id="lettuce" transform="translate(0 0)">
    <path id="Path_5190" data-name="Path 5190" d="M39.736,5.114C26.3-7.125,19.089,6.449,19.089,6.449l-.483,32.259H40.542Zm0,0" fill="#b4e6a0"/>
    <path id="Path_5191" data-name="Path 5191" d="M14.734,59.354C14.734,42.5,2.784,38.944.541,33.627-1.637,28.466,3.555,27.165,2.234,23.3c-2.1-6.129.094-12.353,7.433-11.6h6.358v47.65Zm0,0" fill="#78c3a5"/>
    <path id="Path_5192" data-name="Path 5192" d="M12.154,47.5a25.82,25.82,0,0,1,2.581,11.851h1.29V29.675h-1.29a2.581,2.581,0,0,0-2.581,2.581Zm0,0" fill="#64af96"/>
    <path id="Path_5193" data-name="Path 5193" d="M43.122,59.354c0-16.855,11.951-20.41,14.194-25.727,2.178-5.162-3.015-6.462-1.694-10.323,2.1-6.129-.094-12.353-7.433-11.6H41.832v47.65Zm0,0" fill="#b4e6a0"/>
    <path id="Path_5194" data-name="Path 5194" d="M28.929,80A14.194,14.194,0,0,1,14.735,65.806V37.418H43.123V65.806A14.2,14.2,0,0,1,28.929,80Zm0,0" fill="#fff6d8"/>
    <path id="Path_5195" data-name="Path 5195" d="M31.509,74.838a9.032,9.032,0,0,1-9.033-9.033V42.579H40.542V65.806a9.032,9.032,0,0,1-9.033,9.032Zm0,0" fill="#ffedb1"/>
    <path id="Path_5196" data-name="Path 5196" d="M17.316,65.806V37.417H14.734V65.806A14.194,14.194,0,0,0,28.929,80c.436,0,.865-.027,1.29-.065a14.189,14.189,0,0,1-12.9-14.128Zm0,0" fill="#ffedb1"/>
    <path id="Path_5197" data-name="Path 5197" d="M28.929,74.838A9.032,9.032,0,0,1,19.9,65.806V27.095h1.29A16.775,16.775,0,0,1,37.961,43.87V65.806a9.032,9.032,0,0,1-9.033,9.032Zm0,0" fill="#d2ebb9"/>
    <path id="Path_5198" data-name="Path 5198" d="M26.348,28.385,19.9,27.095V64.515a5.161,5.161,0,0,0,5.161-5.161v-.807c0-11.936,5.807-19.247,1.291-30.162Zm0,0" fill="#b4e6a0"/>
    <path id="Path_5199" data-name="Path 5199" d="M22.88,17.041c1.97-6.5-2.614-14.181-8.145-14.456a6.266,6.266,0,0,0-2.581.423C7.96,4.622,7.719,9.783,9.331,12.041c3.809,5.332,5.4,3.145,5.4,14.758V51.612A5.162,5.162,0,0,0,19.9,56.773V44.139c0-7.1,6.452-8.011,6.452-15.323,0-6.452-5.081-6.452-3.468-11.775Zm0,0" fill="#96d7a5"/>
    <path id="Path_5200" data-name="Path 5200" d="M34.413,34.837a87.488,87.488,0,0,1-2.9,17.1c-2.9,10.218-2.581,17.516-2.581,22.906a9.032,9.032,0,0,0,9.033-9.033V34.837H34.091" fill="#b4e6a0"/>
    <path id="Path_5201" data-name="Path 5201" d="M15.783,42.684a1.289,1.289,0,0,1-1.171-.746L6.226,23.929a1.29,1.29,0,0,1,2.339-1.089l8.386,18.008a1.291,1.291,0,0,1-1.168,1.835Zm0,0" fill="#96d7a5"/>
    <path id="Path_5202" data-name="Path 5202" d="M16.025,38.86l-3.606-7.743a2.594,2.594,0,0,0-.265,1.14v4.4l2.458,5.28a1.289,1.289,0,0,0,1.171.746,1.333,1.333,0,0,0,.242-.054Zm0,0" fill="#78c3a5"/>
    <g id="Group_188" data-name="Group 188">
      <path id="Path_5203" data-name="Path 5203" d="M42.1,42.684a1.289,1.289,0,0,0,1.171-.746l8.386-18.008a1.29,1.29,0,0,0-2.339-1.089L40.932,40.849A1.291,1.291,0,0,0,42.1,42.684Zm0,0" fill="#96d7a5"/>
      <path id="Path_5204" data-name="Path 5204" d="M36.671,23.224a1.293,1.293,0,0,1-1.237-.919c-.5-1.675-1.478-2.505-2.828-3.656A18.549,18.549,0,0,1,26.6,10.361,1.29,1.29,0,0,1,29,9.419a16.11,16.11,0,0,0,5.28,7.267,9.736,9.736,0,0,1,3.627,4.875,1.292,1.292,0,0,1-.864,1.608,1.314,1.314,0,0,1-.372.054Zm0,0" fill="#96d7a5"/>
      <path id="Path_5205" data-name="Path 5205" d="M34.977,17.041c-1.97-6.5,2.614-14.181,8.145-14.456a6.268,6.268,0,0,1,2.581.423c4.194,1.613,4.435,6.774,2.822,9.033-3.809,5.332-5.4,3.145-5.4,14.758V51.612a5.161,5.161,0,0,1-5.161,5.161V44.139c0-7.1-6.452-8.011-6.452-15.323,0-6.452,5.081-6.452,3.468-11.775Zm0,0" fill="#96d7a5"/>
    </g>
    <path id="Path_5206" data-name="Path 5206" d="M14.734,29.675V51.612a5.182,5.182,0,0,0,2.581,4.471V32.257a2.581,2.581,0,0,0-2.581-2.581Zm0,0" fill="#78c3a5"/>
    <path id="Path_5207" data-name="Path 5207" d="M37.961,43.87a2.581,2.581,0,0,0-2.581,2.581V65.806c0,4.091-2.608,7.984-6.453,9.033h0a9.033,9.033,0,0,0,9.033-9.033Zm0,0" fill="#96d7a5"/>
    <path id="Path_5208" data-name="Path 5208" d="M37.961,44.139V56.773a5.086,5.086,0,0,0,2.581-.691V46.45a2.581,2.581,0,0,0-2.581-2.581h0Zm0,0" fill="#78c3a5"/>
  </g>
</svg>
