<svg xmlns="http://www.w3.org/2000/svg" width="66.85" height="80" viewBox="0 0 66.85 80">
  <g id="parsley" transform="translate(-0.078 0)">
    <path id="Path_4811" data-name="Path 4811" d="M40.412,7.526a.633.633,0,0,0-.644-.218l-3.1.776L34.1.386a.657.657,0,0,0-1.2,0l-2.566,7.7-3.1-.776a.631.631,0,0,0-.717.894l6.417,12.834a.63.63,0,0,0,1.127,0L40.484,8.2a.63.63,0,0,0-.072-.676Zm0,0" fill="#96d7a5"/>
    <path id="Path_4812" data-name="Path 4812" d="M34.007,27.926l-8.4-11.175a.63.63,0,0,0-1.119.242l-.668,3.024L16.011,18.91a.641.641,0,0,0-.652.342.629.629,0,0,0,.118.728l5.584,5.573-2.015,2.355a.631.631,0,0,0,.479,1.041L33.5,28.936a.631.631,0,0,0,.5-1.01Zm0,0" fill="#78c3a5"/>
    <path id="Path_4813" data-name="Path 4813" d="M51.648,19.252A.639.639,0,0,0,51,18.91l-7.812,1.108-.668-3.025a.631.631,0,0,0-1.119-.242L33,27.926a.63.63,0,0,0,.5,1.01l13.979.012a.63.63,0,0,0,.479-1.04l-2.015-2.355L51.53,19.98a.629.629,0,0,0,.118-.728Zm0,0" fill="#b4e6a0"/>
    <path id="Path_4814" data-name="Path 4814" d="M51.719,47.288l5.917-9.56a.639.639,0,0,1,.625-.293.631.631,0,0,1,.518.457l.7,2.542,6.7-1.3a.643.643,0,0,1,.668.31.633.633,0,0,1-.081.732l-4.582,5.058L64,47.151a.63.63,0,0,1-.455,1.064l-11.285.034h0a.629.629,0,0,1-.535-.961Zm0,0" fill="#96d7a5"/>
    <path id="Path_4815" data-name="Path 4815" d="M39.359,40.608a.629.629,0,0,1,.633-.249l2.5.494,1.78-6.391A.628.628,0,0,1,44.852,34a.6.6,0,0,1,.619.4l2.411,6.181,2.443-.744a.631.631,0,0,1,.76.857L46.3,51.6a.631.631,0,0,1-.546.375h-.032a.632.632,0,0,1-.549-.32l-5.854-10.37a.631.631,0,0,1,.038-.679Zm0,0" fill="#b4e6a0"/>
    <path id="Path_4816" data-name="Path 4816" d="M45.2,50.994a.63.63,0,0,1,.6-.272l11.8,1.559a.631.631,0,0,1,.339,1.094l-1.9,1.7,4.036,5.264a.63.63,0,0,1-.67.991l-6.389-1.79-.876,2.4a.631.631,0,0,1-.541.411l-.051,0a.63.63,0,0,1-.549-.321l-5.836-10.38a.629.629,0,0,1,.027-.662Zm0,0" fill="#78c3a5"/>
    <path id="Path_4817" data-name="Path 4817" d="M33.5,64.873a1.26,1.26,0,0,0,1.26-1.261V61.179a3.785,3.785,0,0,1,1.924-3.295L54.923,47.641a1.261,1.261,0,1,0-1.234-2.2L35.453,55.687a6.311,6.311,0,0,0-3.21,5.492v2.433A1.26,1.26,0,0,0,33.5,64.873Zm0,0" fill="#96d7a5"/>
    <path id="Path_4818" data-name="Path 4818" d="M15.288,47.288l-5.917-9.56a.639.639,0,0,0-.626-.293.631.631,0,0,0-.518.457l-.7,2.542-6.7-1.3a.642.642,0,0,0-.668.31.632.632,0,0,0,.081.732l4.582,5.058L3.01,47.151a.63.63,0,0,0,.455,1.064l11.285.034h0a.629.629,0,0,0,.535-.961Zm0,0" fill="#96d7a5"/>
    <path id="Path_4819" data-name="Path 4819" d="M27.647,40.608a.628.628,0,0,0-.632-.249l-2.505.494-1.78-6.391A.628.628,0,0,0,22.154,34a.6.6,0,0,0-.619.4l-2.412,6.181-2.442-.744a.631.631,0,0,0-.761.857L20.7,51.6a.63.63,0,0,0,.546.375h.032a.633.633,0,0,0,.549-.32l5.854-10.37a.631.631,0,0,0-.038-.679Zm0,0" fill="#b4e6a0"/>
    <path id="Path_4820" data-name="Path 4820" d="M21.8,50.994a.63.63,0,0,0-.6-.272L9.394,52.28a.631.631,0,0,0-.338,1.094l1.9,1.7L6.92,60.343a.631.631,0,0,0-.022.737.623.623,0,0,0,.692.254l6.389-1.79.875,2.4a.631.631,0,0,0,.542.411l.05,0a.631.631,0,0,0,.549-.321l5.836-10.38a.63.63,0,0,0-.027-.662Zm0,0" fill="#78c3a5"/>
    <path id="Path_4821" data-name="Path 4821" d="M33.5,64.873a1.26,1.26,0,0,1-1.261-1.261V61.179a3.786,3.786,0,0,0-1.924-3.295L12.084,47.641a1.26,1.26,0,0,1,1.234-2.2L31.553,55.687a6.311,6.311,0,0,1,3.21,5.492v2.433a1.26,1.26,0,0,1-1.26,1.261Zm0,0" fill="#96d7a5"/>
    <path id="Path_4822" data-name="Path 4822" d="M33.5,80a1.26,1.26,0,0,1-1.261-1.26V18.233a1.261,1.261,0,1,1,2.521,0V78.739A1.26,1.26,0,0,1,33.5,80Zm0,0" fill="#b4e6a0"/>
  </g>
</svg>
