<svg xmlns="http://www.w3.org/2000/svg" width="88.187" height="80" viewBox="0 0 88.187 80">
  <g id="potato" transform="translate(0 -0.086)">
    <path id="Path_4112" data-name="Path 4112" d="M46.577,27.394a35.076,35.076,0,0,0-3.991-5.444C33.236,11.62,35.9,2.906,25.841.566,6.232-4-2.621,25.121.674,39.2s12.82,30.715,32.008,27.727c2.693-.42,9.625-4.069,11.759-7.8L48.149,50.1a25.425,25.425,0,0,0-1.572-22.711Zm0,0" fill="#f0c382"/>
    <path id="Path_4113" data-name="Path 4113" d="M17.053,23.18a1.418,1.418,0,0,1-1.006-.417L14.625,21.34a1.422,1.422,0,0,1,2.012-2.012l1.422,1.422a1.423,1.423,0,0,1-1.006,2.429Zm0,0" fill="#e3aa75"/>
    <path id="Path_4114" data-name="Path 4114" d="M18.476,13.221h-.014a1.423,1.423,0,1,1,.014,0Zm0,0" fill="#f7d291"/>
    <path id="Path_4115" data-name="Path 4115" d="M22.744,30.293H22.73a1.422,1.422,0,1,1,.013,0Zm0,0" fill="#f7d291"/>
    <path id="Path_4116" data-name="Path 4116" d="M9.954,27.447H9.94a1.422,1.422,0,1,1,.013,0Zm0,0" fill="#e3aa75"/>
    <path id="Path_4117" data-name="Path 4117" d="M8.584,37.783C5.054,30.6,4.126,18.084,7.409,8.35,1.057,17.113-1.287,30.822.673,39.2c3.3,14.082,12.82,30.715,32.008,27.727,2.693-.42,9.625-4.069,11.759-7.8l.458-1.113C27.447,64.237,14.828,50.5,8.584,37.783Zm0,0" fill="#e3aa75"/>
    <path id="Path_4118" data-name="Path 4118" d="M62.579,32.071a34.934,34.934,0,0,0-8.093,2.884,27.106,27.106,0,0,0-8.373,6.869,26.159,26.159,0,0,0-3.882,6.044A34.673,34.673,0,0,0,39.816,55.9C37.326,69.771,48.51,80.086,61.867,80.086S88.187,69.258,88.187,55.9s-7.825-27.92-25.608-23.83Zm0,0" fill="#f0c382"/>
    <path id="Path_4119" data-name="Path 4119" d="M68.411,34.215a14.668,14.668,0,0,1,12.678,6.62A26.983,26.983,0,0,1,85.342,55.9c0,11.169-11.189,21.34-23.474,21.34a20.568,20.568,0,0,1-15.733-6.927A16.438,16.438,0,0,1,42.617,56.4a31.986,31.986,0,0,1,2.212-7.375A23.148,23.148,0,0,1,48.3,43.647a24.183,24.183,0,0,1,7.484-6.158,32.242,32.242,0,0,1,7.436-2.645,23.319,23.319,0,0,1,5.194-.629" fill="#fff6d8"/>
    <path id="Path_4120" data-name="Path 4120" d="M64,74.218a20.568,20.568,0,0,1-15.733-6.927A16.438,16.438,0,0,1,44.751,53.38,31.953,31.953,0,0,1,46.963,46a20.012,20.012,0,0,1,1.095-2.068,23.088,23.088,0,0,0-3.229,5.091A32,32,0,0,0,42.617,56.4a16.441,16.441,0,0,0,3.517,13.912,20.567,20.567,0,0,0,15.733,6.926A24.683,24.683,0,0,0,82.659,65.325,24.733,24.733,0,0,1,64,74.218Zm0,0" fill="#ffedb1"/>
  </g>
</svg>
