<svg xmlns="http://www.w3.org/2000/svg" width="55.55" height="80" viewBox="0 0 55.55 80">
  <g id="radish" transform="translate(-0.078 0)">
    <path id="Path_4028" data-name="Path 4028" d="M.184,1.432c2.467,4.91,11.085,20.2,25.1,25.6,0,0,2.48-24.8-24.148-27.024A.987.987,0,0,0,.184,1.433Zm0,0" fill="#cdf5a0"/>
    <path id="Path_4029" data-name="Path 4029" d="M29.164,42.531a1.293,1.293,0,0,1-1.288-1.2c-.012-.188-1.476-18.971-17.586-31.364a1.292,1.292,0,1,1,1.575-2.048A49.2,49.2,0,0,1,30.455,41.154a1.291,1.291,0,0,1-1.2,1.374.865.865,0,0,1-.089,0Zm0,0" fill="#bee891"/>
    <path id="Path_4030" data-name="Path 4030" d="M55.511,6.625C53.116,11.138,45.3,24.163,32.7,28.8c0,0-2.25-21.568,21.824-23.627a1,1,0,0,1,.983,1.449Zm0,0" fill="#bee891"/>
    <path id="Path_4031" data-name="Path 4031" d="M29.164,42.531a1.29,1.29,0,0,1-1.186-.782c-3.557-8.3-10.582-9.559-10.653-9.571a1.292,1.292,0,0,1,.424-2.549,17.411,17.411,0,0,1,10.745,7.642A43,43,0,0,1,44.913,11.937a1.292,1.292,0,0,1,1.534,2.079A40.775,40.775,0,0,0,30.454,41.331a1.294,1.294,0,0,1-1.29,1.2Zm0,0" fill="#cdf5a0"/>
    <path id="Path_4032" data-name="Path 4032" d="M27.693,41.321a12.924,12.924,0,0,0-2.946,24.984,3.759,3.759,0,0,1,2.381,2.44L28.4,73.053A3.475,3.475,0,0,1,27.64,76.5a2.994,2.994,0,0,1-2.278.919A1.292,1.292,0,1,0,25.289,80a6.027,6.027,0,0,0,5.9-4.818l2.05-7.047a4.542,4.542,0,0,1,2.2-2.677,12.923,12.923,0,0,0-7.744-24.137Zm0,0" fill="#ff8087"/>
    <path id="Path_4033" data-name="Path 4033" d="M24.754,66.307a3.752,3.752,0,0,1,2.374,2.436c.175.594.372,1.262.566,1.922a2.5,2.5,0,0,0,4.808-.007l.734-2.523a4.57,4.57,0,0,1,2.216-2.685,13.139,13.139,0,0,0,3.075-2.386A14.177,14.177,0,0,1,21.36,43.881a12.906,12.906,0,0,0,3.394,22.427Zm0,0" fill="#e6646e"/>
    <path id="Path_4034" data-name="Path 4034" d="M28.137,77.357a1.324,1.324,0,0,0-1.462-.2,2.749,2.749,0,0,1-1.312.258A1.292,1.292,0,1,0,25.289,80a5.922,5.922,0,0,0,2.568-.587,1.253,1.253,0,0,0,.3-2.039l-.02-.018Zm0,0" fill="#ff9ba0"/>
  </g>
</svg>
