<svg xmlns="http://www.w3.org/2000/svg" width="69.416" height="80" viewBox="0 0 69.416 80">
  <g id="spinach" transform="translate(0 0)">
    <path id="Path_4404" data-name="Path 4404" d="M6.848,24.611c-7.158,3.329-9,14.539-4.117,25.036,3.949,8.489,11.088,13.914,17.46,13.918a7.56,7.56,0,0,1,6.825,4.4,7.561,7.561,0,0,1,1.031-8.055c4.1-4.877,4.552-13.831.6-22.321-4.883-10.5-14.644-16.309-21.8-12.979Zm0,0" fill="#96cd82"/>
    <path id="Path_4405" data-name="Path 4405" d="M24.119,60.559c-.037-.068-.054-.139-.088-.207-6.581.2-14.293-4.619-19.287-12.745A29.739,29.739,0,0,1,.294,34.326,26.537,26.537,0,0,0,2.731,49.647c3.949,8.489,11.088,13.914,17.46,13.918a7.561,7.561,0,0,1,6.825,4.4,7.582,7.582,0,0,1-.683-2.7c-.712-1.581-1.4-3.176-2.214-4.706Zm0,0" fill="#7dbe81"/>
    <path id="Path_4406" data-name="Path 4406" d="M61.109,13.448c-8.576-3.9-20.168,3.13-25.892,15.707-4.629,10.172-4,20.855.942,26.634a9.024,9.024,0,0,1,1.31,9.6,9.025,9.025,0,0,1,8.1-5.32c7.606-.068,16.072-6.613,20.7-16.784C72,30.71,69.684,17.35,61.109,13.448Zm0,0" fill="#96cd82"/>
    <path id="Path_4407" data-name="Path 4407" d="M32.132,41.318a21.992,21.992,0,0,0,2.673,12.562c.074.123.15.245.227.366a14.067,14.067,0,0,0,1.127,1.543c0,.006.44.571.631.859.175.272.336.552.484.838a9.059,9.059,0,0,1,.2,7.906,9.1,9.1,0,0,1,.668-1.194L45.9,46.508Zm0,0" fill="#7dbe81"/>
    <path id="Path_4408" data-name="Path 4408" d="M46.705,46.316a1.27,1.27,0,0,1-.449-2.458l15.283-5.77a1.27,1.27,0,0,1,.9,2.376l-15.283,5.77a1.276,1.276,0,0,1-.449.082Zm0,0" fill="#b4e6a0"/>
    <path id="Path_4409" data-name="Path 4409" d="M31.484,80a1.27,1.27,0,0,1-1.156-1.793l25.209-55.79a1.27,1.27,0,1,1,2.314,1.046L32.643,79.254A1.272,1.272,0,0,1,31.484,80Zm0,0" fill="#cdf5a0"/>
    <path id="Path_4410" data-name="Path 4410" d="M31.487,80a1.272,1.272,0,0,1-1.16-.749L14.269,43.511a1.27,1.27,0,0,1,2.316-1.042l16.058,35.74A1.27,1.27,0,0,1,31.487,80Zm0,0" fill="#b4e6a0"/>
    <path id="Path_4411" data-name="Path 4411" d="M18.811,51.948a1.257,1.257,0,0,1-.461-.087l-9.76-3.8A1.27,1.27,0,1,1,9.513,45.7l9.759,3.8a1.27,1.27,0,0,1-.461,2.453Zm0,0" fill="#b4e6a0"/>
    <path id="Path_4412" data-name="Path 4412" d="M31.486,63.72a10.076,10.076,0,0,1,5.773-9.153c7.7-3.586,13.275-14.153,13.275-26.63C50.533,12.508,42.006,0,31.486,0S12.438,12.508,12.438,27.936c0,12.477,5.577,23.044,13.274,26.63a10.076,10.076,0,0,1,5.773,9.153Zm0,0" fill="#96cd82"/>
    <path id="Path_4413" data-name="Path 4413" d="M31.612,53.491C24.635,49.808,18.773,40.719,16.944,29.4c-1.6-9.883.271-19.142,4.4-25.118-5.345,4.948-8.91,13.7-8.91,23.652,0,12.477,5.577,23.044,13.274,26.63a10.076,10.076,0,0,1,5.773,9.153,10.243,10.243,0,0,1,.126-1.522Zm0,0" fill="#7dbe81"/>
    <g id="Group_154" data-name="Group 154">
      <path id="Path_4414" data-name="Path 4414" d="M31.486,49.524a1.267,1.267,0,0,1-.9-.372L15.413,33.977a1.27,1.27,0,0,1,1.8-1.8L32.383,47.356a1.27,1.27,0,0,1-.9,2.168Zm0,0" fill="#b4e6a0"/>
      <path id="Path_4415" data-name="Path 4415" d="M31.486,39.365a1.27,1.27,0,0,1-.9-2.168l12.7-12.7a1.27,1.27,0,0,1,1.8,1.8l-12.7,12.7A1.264,1.264,0,0,1,31.486,39.365Zm0,0" fill="#b4e6a0"/>
      <path id="Path_4416" data-name="Path 4416" d="M31.486,30.476a1.266,1.266,0,0,1-.9-.372L21.7,21.215a1.27,1.27,0,0,1,1.8-1.8l8.889,8.889a1.27,1.27,0,0,1-.9,2.167Zm0,0" fill="#b4e6a0"/>
    </g>
    <path id="Path_4417" data-name="Path 4417" d="M31.486,80a1.27,1.27,0,0,1-1.27-1.27v-67.3a1.27,1.27,0,1,1,2.54,0v67.3A1.269,1.269,0,0,1,31.486,80Zm0,0" fill="#cdf5a0"/>
  </g>
</svg>
