<svg id="Till_Basket" data-name="Till Basket" xmlns="http://www.w3.org/2000/svg" width="92.924" height="80" viewBox="0 0 92.924 80">
  <g id="Group_44" data-name="Group 44" transform="translate(0.526)">
    <path id="Path_309" data-name="Path 309" d="M61.927,45.169a10.169,10.169,0,0,0-4.763-6.456.615.615,0,0,1-.239-.813,5.53,5.53,0,0,0-4.7-8.069.614.614,0,0,1-.565-.821,5.531,5.531,0,0,0-5.791-7.451,5.577,5.577,0,0,0-1.656.454.613.613,0,0,1-.775-.236,5.532,5.532,0,1,0-8.885,6.532.615.615,0,0,1-.389,1.02,5.536,5.536,0,0,0-4.875,5.055.61.61,0,0,1-.744.538A10.2,10.2,0,0,0,17.2,40.316a.612.612,0,0,1-.838.271,5.531,5.531,0,0,0-7.994,6.144l0,.008a.623.623,0,0,1-.542.769A5.529,5.529,0,0,0,2.955,53.77c.33,2.322,5.025,26.293,5.025,26.293H61.943s.354-33.323-.016-34.894Z" transform="translate(-2.901 -19.148)" fill="#ccf49f"/>
  </g>
  <g id="Group_45" data-name="Group 45" transform="translate(31.633)">
    <path id="Path_310" data-name="Path 310" d="M202.216,45.169a10.169,10.169,0,0,0-4.762-6.456.615.615,0,0,1-.239-.813,5.53,5.53,0,0,0-4.7-8.069.614.614,0,0,1-.565-.821,5.531,5.531,0,0,0-5.791-7.451,5.577,5.577,0,0,0-1.656.454.613.613,0,0,1-.775-.236,5.52,5.52,0,0,0-9.432.041,5.547,5.547,0,0,1,3.106,2.39.613.613,0,0,0,.775.236,5.531,5.531,0,0,1,7.529,3.318,5.515,5.515,0,0,1-.081,3.679.614.614,0,0,0,.565.821,5.53,5.53,0,0,1,4.7,8.069.615.615,0,0,0,.239.813A10.17,10.17,0,0,1,195.89,47.6c.119.506.163,4.3.168,9.222a6.79,6.79,0,0,1-.038,11.709c-.028,4.657-.066,8.967-.091,11.532h6.3s.354-33.323-.016-34.894Z" transform="translate(-174.296 -19.148)" fill="#b3e59f"/>
  </g>
  <g id="Group_46" data-name="Group 46" transform="translate(34.962 8.648)">
    <path id="Path_311" data-name="Path 311" d="M206.222,80.384c-3.743,3.743-9,4.984-11.807,5.391a1.553,1.553,0,0,1-1.761-1.761c.407-2.811,1.648-8.063,5.391-11.807s9-4.984,11.807-5.391a1.553,1.553,0,0,1,1.761,1.761c-.407,2.81-1.648,8.063-5.391,11.807Z" transform="translate(-192.638 -66.8)" fill="#b3e59f"/>
  </g>
  <path id="Path_312" data-name="Path 312" d="M213.228,69.308,195.147,87.389a1.545,1.545,0,0,0,1.322.439c2.811-.407,8.063-1.648,11.807-5.391s4.984-9,5.391-11.807A1.546,1.546,0,0,0,213.228,69.308Z" transform="translate(-159.729 -60.204)" fill="#95d6a4"/>
  <path id="Path_313" data-name="Path 313" d="M209.853,66.817a25.842,25.842,0,0,0-5.407,1.389,20.272,20.272,0,0,1-5.063,10,18.1,18.1,0,0,1-6.4,4c-.146.672-.251,1.284-.327,1.81a1.553,1.553,0,0,0,1.761,1.761c2.811-.407,8.063-1.648,11.807-5.391s4.984-9,5.391-11.807A1.553,1.553,0,0,0,209.853,66.817Z" transform="translate(-157.677 -58.151)" fill="#95d6a4"/>
  <path id="Path_314" data-name="Path 314" d="M213.228,69.308,195.147,87.389a1.544,1.544,0,0,0,1.322.439c2.811-.407,8.063-1.648,11.807-5.391s4.984-9,5.391-11.807A1.546,1.546,0,0,0,213.228,69.308Z" transform="translate(-159.729 -60.204)" fill="#78c2a4"/>
  <g id="Group_51" data-name="Group 51" transform="translate(57.051 7.004)">
    <g id="Group_47" data-name="Group 47" transform="translate(5.493 0.001)">
      <path id="Path_315" data-name="Path 315" d="M345.968,68.363a1.355,1.355,0,0,1-1.355-1.355V59.095a1.355,1.355,0,0,1,2.71,0v7.913A1.355,1.355,0,0,1,345.968,68.363Z" transform="translate(-344.613 -57.74)" fill="#b3e59f"/>
    </g>
    <g id="Group_48" data-name="Group 48" transform="translate(2.011 0)">
      <path id="Path_316" data-name="Path 316" d="M330.265,73.087h0a1.355,1.355,0,0,1-1.3-1l-3.482-12.64a1.355,1.355,0,0,1,2.612-.72l2.186,7.936,2.224-7.942a1.355,1.355,0,0,1,2.609.731L331.569,72.1A1.355,1.355,0,0,1,330.265,73.087Z" transform="translate(-325.428 -57.737)" fill="#b3e59f"/>
    </g>
    <g id="Group_49" data-name="Group 49" transform="translate(0 9.862)">
      <path id="Path_317" data-name="Path 317" d="M328.043,119.626c0,5.911-3.066,26.628-6.848,26.628s-6.848-20.716-6.848-26.628,3.066-7.55,6.848-7.55S328.043,113.715,328.043,119.626Z" transform="translate(-314.347 -112.076)" fill="#ecb780"/>
    </g>
    <g id="Group_50" data-name="Group 50" transform="translate(4.183 9.862)">
      <path id="Path_318" data-name="Path 318" d="M340.061,112.076a9.3,9.3,0,0,0-2.664.348c2.458.738,4.183,2.768,4.183,7.2s-1.725,17.2-4.183,23.3c.819,2.033,1.719,3.327,2.664,3.327,3.782,0,6.848-20.716,6.848-26.628S343.844,112.076,340.061,112.076Z" transform="translate(-337.397 -112.076)" fill="#e49542"/>
    </g>
  </g>
  <g id="Group_52" data-name="Group 52" transform="translate(9.957 12.882)">
    <path id="Path_319" data-name="Path 319" d="M64.249,92.354A7.572,7.572,0,0,0,62.036,97.3a7.6,7.6,0,0,0-4.948,12.962c2.968,2.968,13.644,8.831,16.612,5.863a7.572,7.572,0,0,0,2.213-4.948,7.572,7.572,0,0,0,4.948-2.213C83.829,106,77.966,95.322,75,92.354a7.6,7.6,0,0,0-10.749,0Z" transform="translate(-54.862 -90.128)" fill="#dd636e"/>
  </g>
  <g id="Group_54" data-name="Group 54" transform="translate(17.708 12.882)">
    <g id="Group_53" data-name="Group 53" transform="translate(0 0)">
      <path id="Path_320" data-name="Path 320" d="M109.953,92.354a7.6,7.6,0,0,0-12.386,2.441,7.6,7.6,0,0,1,8.307,1.639c2.455,2.455,6.891,10.185,6.671,14.462a7.561,7.561,0,0,0,3.271-1.93C118.784,106,112.921,95.322,109.953,92.354Z" transform="translate(-97.567 -90.128)" fill="#da4a54"/>
    </g>
  </g>
  <g id="Group_59" data-name="Group 59" transform="translate(58.511 7.145)">
    <g id="Group_55" data-name="Group 55" transform="translate(23.604 2.462)">
      <path id="Path_321" data-name="Path 321" d="M453.8,80.389a1.355,1.355,0,0,1-.958-2.313l5.6-5.6a1.355,1.355,0,0,1,1.916,1.916l-5.6,5.6A1.351,1.351,0,0,1,453.8,80.389Z" transform="translate(-452.45 -72.084)" fill="#b3e59f"/>
    </g>
    <g id="Group_56" data-name="Group 56" transform="translate(20.262)">
      <path id="Path_322" data-name="Path 322" d="M435.389,72.627A1.355,1.355,0,0,1,434.21,70.6l6.476-11.4a1.355,1.355,0,0,1,2.356,1.338L438.976,67.7l7.188-4.044a1.355,1.355,0,1,1,1.329,2.362l-11.44,6.435A1.352,1.352,0,0,1,435.389,72.627Z" transform="translate(-434.033 -58.517)" fill="#b3e59f"/>
    </g>
    <g id="Group_57" data-name="Group 57" transform="translate(0 7.506)">
      <path id="Path_323" data-name="Path 323" d="M346.435,112.383c-4.18,4.18-21,16.661-23.671,13.987s9.807-19.491,13.987-23.671,7.507-3.171,10.181-.5S350.615,108.2,346.435,112.383Z" transform="translate(-322.393 -99.877)" fill="#ecb780"/>
    </g>
    <g id="Group_58" data-name="Group 58" transform="translate(0 8.194)">
      <path id="Path_324" data-name="Path 324" d="M346.931,105.3a9.3,9.3,0,0,0-2.13-1.638c1.217,2.26,1,4.915-2.135,8.051s-13.381,10.941-19.434,13.518c-.858,2.017-1.137,3.568-.468,4.237,2.674,2.674,19.491-9.807,23.671-13.987S349.606,107.978,346.931,105.3Z" transform="translate(-322.392 -103.666)" fill="#e49542"/>
    </g>
  </g>
  <g id="Group_60" data-name="Group 60" transform="translate(74.123 26.306)">
    <circle id="Ellipse_3" data-name="Ellipse 3" cx="6.791" cy="6.791" r="6.791" fill="#ccf49f"/>
  </g>
  <g id="Group_61" data-name="Group 61" transform="translate(79.029 26.306)">
    <path id="Path_325" data-name="Path 325" d="M437.329,164.093a6.789,6.789,0,0,0-1.885.267,6.791,6.791,0,0,1,0,13.048,6.791,6.791,0,1,0,1.885-13.316Z" transform="translate(-435.444 -164.093)" fill="#b3e59f"/>
  </g>
  <g id="Group_62" data-name="Group 62" transform="translate(26.969 24.644)">
    <circle id="Ellipse_4" data-name="Ellipse 4" cx="12.777" cy="12.777" r="12.777" transform="translate(0 0)" fill="#e4989d"/>
  </g>
  <g id="Group_63" data-name="Group 63" transform="translate(30.896 24.801)">
    <path id="Path_326" data-name="Path 326" d="M181.086,155.8a12.774,12.774,0,0,1-8.85,21.988,12.881,12.881,0,0,1-2-.157,12.776,12.776,0,1,0,10.85-21.831Z" transform="translate(-170.236 -155.796)" fill="#e28086"/>
  </g>
  <g id="Group_64" data-name="Group 64" transform="translate(0 33.988)">
    <path id="Path_327" data-name="Path 327" d="M89.691,206.419H1.807A1.807,1.807,0,0,0,0,208.226v19.393a1.807,1.807,0,0,0,1.807,1.807H89.691a1.807,1.807,0,0,0,1.807-1.807V208.226a1.807,1.807,0,0,0-1.807-1.807Zm-30.814,11.5a3.593,3.593,0,0,1-3.593,3.593H36.214a3.593,3.593,0,1,1,0-7.186h19.07A3.593,3.593,0,0,1,58.877,217.922Z" transform="translate(0 -206.419)" fill="#aa8080"/>
  </g>
  <g id="Group_65" data-name="Group 65" transform="translate(0 56.994)">
    <path id="Path_328" data-name="Path 328" d="M89.683,356.186H1.815A1.815,1.815,0,0,1,0,354.371V334.995a1.815,1.815,0,0,1,1.815-1.815H89.683a1.815,1.815,0,0,1,1.815,1.815v19.376A1.815,1.815,0,0,1,89.683,356.186Z" transform="translate(0 -333.18)" fill="#aa8080"/>
  </g>
  <g id="Group_66" data-name="Group 66" transform="translate(0 33.988)">
    <path id="Path_329" data-name="Path 329" d="M89.691,206.419h-5.17v14.223a1.807,1.807,0,0,1-1.807,1.807H0v5.17a1.807,1.807,0,0,0,1.807,1.807H89.691a1.807,1.807,0,0,0,1.807-1.807V208.226a1.807,1.807,0,0,0-1.807-1.807Z" transform="translate(0 -206.419)" fill="#9d6b6b"/>
  </g>
  <path id="Path_330" data-name="Path 330" d="M89.683,333.18H84.522V347.4a1.815,1.815,0,0,1-1.815,1.815H0v5.161a1.815,1.815,0,0,0,1.815,1.815H89.683a1.815,1.815,0,0,0,1.815-1.815V334.995a1.815,1.815,0,0,0-1.815-1.815Z" transform="translate(0 -276.186)" fill="#9d6b6b"/>
  <g id="Group_73" data-name="Group 73" transform="translate(13.086 15.962)">
    <g id="Group_72" data-name="Group 72">
      <path id="Path_336" data-name="Path 336" d="M76.539,112.888a1.354,1.354,0,0,1-.351-.046l-3.081-.826a1.355,1.355,0,0,1,.7-2.617l.815.218-.218-.815a1.355,1.355,0,1,1,2.617-.7l.826,3.081a1.355,1.355,0,0,1-1.309,1.705Z" transform="translate(-72.103 -107.097)" fill="#8b5e5e"/>
    </g>
  </g>
</svg>
