<svg id="till_basket_lineal" xmlns="http://www.w3.org/2000/svg" width="91.186" height="80" viewBox="0 0 91.186 80">
  <path id="Path_305" data-name="Path 305" d="M181.941,252.288h18.444a4.785,4.785,0,0,0,0-9.571H181.941a4.785,4.785,0,1,0,0,9.571Zm15.866-6.95h2.579a2.165,2.165,0,0,1,0,4.329H194.7A13.773,13.773,0,0,0,197.807,245.338Zm-15.866,0h12.912a11.157,11.157,0,0,1-4.737,4.329h-8.174a2.165,2.165,0,0,1,0-4.329Z" transform="translate(-145.605 -202.198)"/>
  <path id="Path_306" data-name="Path 306" d="M88.059,48.074h-.624a7.884,7.884,0,0,0-3.747-6.264c1.791-2.576,1.982-5.162.58-7.618l6.249-3.515a1.31,1.31,0,1,0-1.285-2.284l-2.749,1.547,1.9-1.9a1.311,1.311,0,0,0-1.853-1.853l-1.791,1.791,1.476-2.6a1.31,1.31,0,0,0-2.279-1.295L80.4,30.309c-3.065-1.766-6.32-1.039-9.535,2.176-.418.418-.926.972-1.5,1.628a6.381,6.381,0,0,0-3.5-2.262l1.932-6.9a1.311,1.311,0,0,0-2.524-.707l-.85,3.037V24.6a1.31,1.31,0,1,0-2.621,0v2.533l-.794-2.881a1.31,1.31,0,1,0-2.527.7l1.9,6.9A6.34,6.34,0,0,0,56.2,35.151c-.224-.176-.453-.346-.691-.5a6.653,6.653,0,0,0-.957-6.574c.092-.469.164-.9.22-1.29a2.828,2.828,0,0,0-3.188-3.188c-.3.043-.621.1-.967.159A6.656,6.656,0,0,0,41.8,17.864a6.661,6.661,0,0,0-11.037,7.429,6.619,6.619,0,0,0-3.57,2.6,8.654,8.654,0,0,0-9.469,4.085A1.316,1.316,0,0,0,16.193,33.6l.211.788-.788-.211a1.315,1.315,0,0,0-1.646,1.352,9.392,9.392,0,0,0-3.179-.048A6.663,6.663,0,0,0,5.7,42.762a6.811,6.811,0,0,0-.954.291A6.635,6.635,0,0,0,.516,49.434,3.042,3.042,0,0,0,0,51.131V58.1a1.31,1.31,0,1,0,2.621,0V51.131a.437.437,0,0,1,.437-.437h85a.437.437,0,0,1,.437.437V69.888a.437.437,0,0,1-.437.437h-54.5a1.31,1.31,0,1,0,0,2.621h54.5a.437.437,0,0,1,.437.437V92.14a.437.437,0,0,1-.437.437H83.97a1.31,1.31,0,0,0,0,2.621h4.089a3.061,3.061,0,0,0,3.058-3.058V73.383a3.039,3.039,0,0,0-.552-1.747,3.039,3.039,0,0,0,.552-1.747V51.131a3.061,3.061,0,0,0-3.058-3.058Zm-76.96,0H3.309A4.03,4.03,0,0,1,5.7,45.5a4.1,4.1,0,0,1,1.034-.254,1.926,1.926,0,0,0,1.655-2.354,4.038,4.038,0,0,1,2.99-4.853A8.681,8.681,0,0,0,11.1,48.074ZM49.9,26.58l-12.7,12.7c-.1.019-.194.034-.291.054a17.921,17.921,0,0,1,4.377-8.306A18.038,18.038,0,0,1,49.9,26.58Zm1.889,1.889a18.038,18.038,0,0,1-4.452,8.618,14.9,14.9,0,0,1-3.526,2.572,13.629,13.629,0,0,0-2.663-.549Zm-20.039-.727a4.1,4.1,0,0,1,.459-.081,1.918,1.918,0,0,0,1.213-3.149,4.04,4.04,0,1,1,6.489-4.771,1.909,1.909,0,0,0,2.4.736,4.094,4.094,0,0,1,1.214-.332A4.035,4.035,0,0,1,47.813,22.9a4.087,4.087,0,0,1,.2,1.471,19.917,19.917,0,0,0-8.579,4.811,18.874,18.874,0,0,0-4.175,6.674,26.781,26.781,0,0,0-3.91-5.656,8.64,8.64,0,0,0-1.624-1.274,4.025,4.025,0,0,1,2.032-1.181ZM14.607,48.074a6.108,6.108,0,0,1-.586-9.1,6.03,6.03,0,0,1,3.169-1.666l.729.2A1.32,1.32,0,0,0,19.524,35.9l-.217-.812A6.039,6.039,0,0,1,29.49,32.05a28.77,28.77,0,0,1,4.9,8.088,13.719,13.719,0,0,0-7.5,7.935Zm15.114,0a11.05,11.05,0,0,1,20.064,0Zm22.893,0a13.691,13.691,0,0,0-5.888-7.113,16.7,16.7,0,0,0,2.465-2.02,18.819,18.819,0,0,0,4.167-6.652,4.03,4.03,0,0,1-.449,1.757,1.906,1.906,0,0,0,.73,2.519,8.591,8.591,0,0,1,1.707,1.324,14.273,14.273,0,0,0-.167,2.238,67.011,67.011,0,0,0,.708,7.948Zm5.92,0a66.211,66.211,0,0,1-.733-7.948c0-5.28,2.686-5.992,5.313-5.992,2.8,0,3.946,1.066,4.509,2.072a100.764,100.764,0,0,0-8.266,11.868Zm13.171,0H62.4A92.053,92.053,0,0,1,72.717,34.338C76.45,30.6,78.853,32,80.71,33.858c2.336,2.336,2.481,4.428.46,6.95a7.881,7.881,0,0,0-9.465,7.266Zm2.628,0a5.257,5.257,0,0,1,10.475,0Z" transform="translate(0 -15.205)"/>
  <path id="Path_307" data-name="Path 307" d="M77.747,312.449c-8.951.047-57.621-.032-74.689,0a.437.437,0,0,1-.437-.437V293.255a.437.437,0,0,1,.437-.437H27.141a1.31,1.31,0,0,0,0-2.621H3.058a.437.437,0,0,1-.437-.437v-5.728a1.31,1.31,0,0,0-2.621,0v5.729a3.039,3.039,0,0,0,.551,1.746A3.039,3.039,0,0,0,0,293.255v18.757a3.061,3.061,0,0,0,3.058,3.058c23.6-.176,63.454.053,74.69,0a1.31,1.31,0,1,0,0-2.621Z" transform="translate(0 -235.078)"/>
</svg>
