<svg xmlns="http://www.w3.org/2000/svg" width="88.571" height="80" viewBox="0 0 88.571 80">
  <g id="tomato" transform="translate(0 0)">
    <path id="Path_3992" data-name="Path 3992" d="M28.57,13.985a1.424,1.424,0,0,1-.91-.328l-10-8.271a1.429,1.429,0,1,1,1.822-2.2l10,8.27a1.429,1.429,0,0,1-.912,2.529Zm0,0" fill="#96cd82"/>
    <path id="Path_3993" data-name="Path 3993" d="M39.672,3.375a1.428,1.428,0,0,0-2.012-.191L30,9.521V1.429a1.429,1.429,0,0,0-2.858,0V12.581c0,.032,0,.032,0,.016a1.427,1.427,0,0,0,2.337,1.061l10-8.271a1.429,1.429,0,0,0,.19-2.011Zm0,0" fill="#afdc82"/>
    <path id="Path_3994" data-name="Path 3994" d="M28.571,12.557C33.143,12.557,34.285,10,40,10c7.143,0,17.143,5.113,17.143,19.173,0,12.707-5.691,29.4-28.572,29.4S0,41.88,0,29.173C0,15.113,10,10,17.143,10c5.714,0,6.857,2.556,11.428,2.556Zm0,0" fill="#e6646e"/>
    <path id="Path_3995" data-name="Path 3995" d="M37.143,51.429c-22.881,0-28.571-16.692-28.571-29.4a21.222,21.222,0,0,1,2.721-10.954C5.53,13.22,0,18.734,0,29.173c0,12.707,5.691,29.4,28.571,29.4,11.547,0,18.712-4.254,22.981-10.1a32.554,32.554,0,0,1-14.409,2.956Zm0,0" fill="#dc4655"/>
    <path id="Path_3996" data-name="Path 3996" d="M60,33.985c4.571,0,5.714-2.557,11.428-2.557,7.143,0,17.143,5.113,17.143,19.173C88.571,63.308,82.88,80,60,80S31.429,63.308,31.429,50.6c0-14.06,10-19.173,17.143-19.173,5.713,0,6.857,2.557,11.428,2.557Zm0,0" fill="#e6646e"/>
    <path id="Path_3997" data-name="Path 3997" d="M80.773,37.871a14.4,14.4,0,0,0-9.345-3.586,12.225,12.225,0,0,0-5.323,1.172,14.159,14.159,0,0,1-12.211,0,12.23,12.23,0,0,0-5.324-1.172c-4.941,0-14.285,3.41-14.285,16.316,0,7.98,2.506,26.541,25.714,26.541S85.714,58.582,85.714,50.6c0-5.514-1.662-9.8-4.941-12.73Zm0,0" fill="#ff8087"/>
    <path id="Path_3998" data-name="Path 3998" d="M66.783,45.714a3.926,3.926,0,0,1-3.926-3.926V33.6a10.825,10.825,0,0,1-5.714,0v8.187a3.926,3.926,0,0,1-3.927,3.926,8.809,8.809,0,0,0-8.927,8.308,8.572,8.572,0,0,0,8.568,8.835h2.221a5.667,5.667,0,0,0,9.843,0h2.222a8.572,8.572,0,0,0,8.567-8.835,8.81,8.81,0,0,0-8.927-8.308Zm0,0" fill="#ffb4af"/>
    <path id="Path_3999" data-name="Path 3999" d="M47.17,53.725A5.88,5.88,0,0,1,53.1,48.572h.282a3.05,3.05,0,0,0,3.043-3.108,6.628,6.628,0,0,0-4.121-6.025l-.033-.014a8.071,8.071,0,0,0-3.7-.854c-1.023,0-10,.338-10,12.03,0,8.089,2.366,17.411,12.284,20.866a4.259,4.259,0,0,0,5.574-4.088V63.571A3.572,3.572,0,0,0,52.857,60a5.716,5.716,0,0,1-5.688-6.276Zm0,0" fill="#e6646e"/>
    <path id="Path_4000" data-name="Path 4000" d="M50.833,48.037a1.43,1.43,0,0,1-1.339-.931l-.975-2.624a1.429,1.429,0,0,1,2.679-1l.975,2.624a1.429,1.429,0,0,1-.841,1.837A1.45,1.45,0,0,1,50.833,48.037Zm0,0" fill="#ffc369"/>
    <path id="Path_4001" data-name="Path 4001" d="M46.189,50.238a1.423,1.423,0,0,1-.887-.309l-1.688-1.34A1.429,1.429,0,0,1,45.39,46.35l1.688,1.34a1.429,1.429,0,0,1-.89,2.548Zm0,0" fill="#ffe17d"/>
    <path id="Path_4002" data-name="Path 4002" d="M45.311,62.048a1.428,1.428,0,0,1-.958-2.488l1.474-1.333a1.429,1.429,0,0,1,1.917,2.119L46.27,61.679a1.429,1.429,0,0,1-.959.369Zm0,0" fill="#ffe17d"/>
    <path id="Path_4003" data-name="Path 4003" d="M49.4,66.727a1.43,1.43,0,0,1-1.3-2.012l1.249-2.8a1.429,1.429,0,1,1,2.609,1.165l-1.25,2.8a1.429,1.429,0,0,1-1.306.847Zm0,0" fill="#ffc369"/>
    <path id="Path_4004" data-name="Path 4004" d="M45.3,55.706H43.578a1.429,1.429,0,0,1,0-2.857H45.3a1.429,1.429,0,1,1,0,2.857Zm0,0" fill="#ffc369"/>
    <path id="Path_4005" data-name="Path 4005" d="M72.83,53.725A5.88,5.88,0,0,0,66.9,48.572h-.282a3.051,3.051,0,0,1-3.043-3.108,6.629,6.629,0,0,1,4.122-6.025l.032-.014a8.071,8.071,0,0,1,3.7-.854c1.024,0,10,.338,10,12.03,0,8.089-2.366,17.411-12.284,20.866a4.259,4.259,0,0,1-5.574-4.088V63.571A3.571,3.571,0,0,1,67.143,60a5.716,5.716,0,0,0,5.688-6.276Zm0,0" fill="#e6646e"/>
    <path id="Path_4006" data-name="Path 4006" d="M69.167,48.037a1.43,1.43,0,0,0,1.339-.931l.975-2.624a1.429,1.429,0,0,0-2.679-1l-.975,2.624a1.429,1.429,0,0,0,.841,1.837A1.445,1.445,0,0,0,69.167,48.037Zm0,0" fill="#ffc369"/>
    <path id="Path_4007" data-name="Path 4007" d="M73.811,50.238a1.422,1.422,0,0,0,.887-.309l1.688-1.34a1.429,1.429,0,0,0-1.777-2.238l-1.688,1.34a1.429,1.429,0,0,0,.89,2.548Zm0,0" fill="#ffe17d"/>
    <path id="Path_4008" data-name="Path 4008" d="M74.689,62.048a1.429,1.429,0,0,0,.958-2.488l-1.474-1.333a1.429,1.429,0,1,0-1.916,2.119l1.474,1.333a1.426,1.426,0,0,0,.958.369Zm0,0" fill="#ffe17d"/>
    <g id="Group_144" data-name="Group 144">
      <path id="Path_4009" data-name="Path 4009" d="M70.6,66.727a1.43,1.43,0,0,0,1.3-2.012l-1.25-2.8a1.428,1.428,0,1,0-2.608,1.165l1.25,2.8a1.428,1.428,0,0,0,1.306.847Zm0,0" fill="#ffc369"/>
      <path id="Path_4010" data-name="Path 4010" d="M74.7,55.706h1.718a1.429,1.429,0,0,0,0-2.857H74.7a1.429,1.429,0,1,0,0,2.857Zm0,0" fill="#ffc369"/>
    </g>
  </g>
</svg>
