<svg xmlns="http://www.w3.org/2000/svg" width="66.745" height="80" viewBox="0 0 66.745 80">
  <g id="user" transform="translate(0)">
    <path id="Path_492" data-name="Path 492" d="M125.572,19.267a18.646,18.646,0,0,1-5.645,13.624A18.645,18.645,0,0,1,106.3,38.536h-.009A18.648,18.648,0,0,1,92.68,32.892a18.643,18.643,0,0,1-5.645-13.624A18.641,18.641,0,0,1,92.68,5.645,18.64,18.64,0,0,1,106.294,0h.009a18.651,18.651,0,0,1,13.624,5.645,18.644,18.644,0,0,1,5.645,13.622Zm0,0" transform="translate(-73.436 0)" fill="#ffbb85"/>
    <path id="Path_493" data-name="Path 493" d="M66.745,274.918a13.281,13.281,0,0,1-3.946,10.05,14.2,14.2,0,0,1-10.167,3.708H14.112a14.194,14.194,0,0,1-10.165-3.708A13.279,13.279,0,0,1,0,274.918c0-1.606.053-3.2.159-4.724a47.3,47.3,0,0,1,.649-5.057,39.9,39.9,0,0,1,1.242-5.081,25.2,25.2,0,0,1,2.089-4.741,17.944,17.944,0,0,1,3.149-4.106,13.893,13.893,0,0,1,4.527-2.844,15.649,15.649,0,0,1,5.778-1.045c.816,0,1.606.334,3.13,1.326.953.622,2.052,1.33,3.265,2.105a18.636,18.636,0,0,0,4.219,1.86,16.822,16.822,0,0,0,4.651.825q.255.009.511.009a16.782,16.782,0,0,0,5.164-.834,18.635,18.635,0,0,0,4.221-1.86c1.226-.783,2.324-1.49,3.264-2.1,1.525-.994,2.314-1.328,3.132-1.328a15.657,15.657,0,0,1,5.777,1.045,13.906,13.906,0,0,1,4.526,2.844,17.88,17.88,0,0,1,3.151,4.106,25.116,25.116,0,0,1,2.089,4.739,39.871,39.871,0,0,1,1.244,5.084,47.742,47.742,0,0,1,.647,5.054c.108,1.523.161,3.113.163,4.725Zm0,0" transform="translate(0 -208.676)" fill="#6aa9ff"/>
    <path id="Path_494" data-name="Path 494" d="M210.3,38.536h-.009V0h.009a18.651,18.651,0,0,1,13.624,5.645,18.644,18.644,0,0,1,5.645,13.622,18.646,18.646,0,0,1-5.645,13.624A18.645,18.645,0,0,1,210.3,38.536Zm0,0" transform="translate(-177.435)" fill="#f5a86c"/>
    <path id="Path_495" data-name="Path 495" d="M244.18,274.918a13.281,13.281,0,0,1-3.946,10.05,14.2,14.2,0,0,1-10.167,3.709H210.293v-35.24q.255.009.511.009a16.782,16.782,0,0,0,5.164-.834,18.636,18.636,0,0,0,4.221-1.86c1.226-.783,2.324-1.49,3.264-2.1,1.525-.994,2.314-1.328,3.132-1.328a15.657,15.657,0,0,1,5.777,1.045,13.906,13.906,0,0,1,4.526,2.844,17.88,17.88,0,0,1,3.151,4.106,25.115,25.115,0,0,1,2.089,4.739,39.871,39.871,0,0,1,1.244,5.084,47.742,47.742,0,0,1,.647,5.054c.108,1.523.161,3.113.163,4.725Zm0,0" transform="translate(-177.434 -208.676)" fill="#2682ff"/>
  </g>
</svg>
